<svg width="32" height="32" viewBox="0 0 32 32" fill="none" xmlns="http://www.w3.org/2000/svg">
<path d="M14.1733 0.0564585C16.8719 -0.119677 18.986 0.0539273 21.3824 1.48404C23.8209 2.94736 25.595 5.35082 26.3133 8.16457C27.7689 13.9581 24.866 17.4356 21.9794 21.9021C20.238 24.5964 18.2799 27.703 16.6926 30.485L15.8337 32C13.7437 28.5788 11.6306 25.1728 9.49456 21.7821C8.53431 20.2727 6.92123 18.0562 6.16843 16.5851C5.65282 15.6012 5.27917 14.5448 5.05947 13.4496C4.4813 10.3996 5.1027 7.23756 6.78677 4.66034C8.54121 1.987 11.1897 0.66408 14.1733 0.0564585Z" fill="#55A3D6"/>
<path d="M14.6323 4.50003C18.1468 3.85794 21.5029 6.26835 22.1374 9.89052C22.772 13.5127 20.4459 16.9817 16.9356 17.6483C13.4086 18.318 10.0252 15.9054 9.3875 12.2658C8.75 8.62642 11.101 5.14528 14.6323 4.50003Z" fill="white"/>
</svg>
