<svg width="40" height="40" viewBox="0 0 40 40" fill="none" xmlns="http://www.w3.org/2000/svg">
<rect width="40" height="40" rx="8" fill="#E8520B"/>
<path d="M2.3495 25V13.8H8.3335C9.88017 13.8 11.0215 14.0773 11.7575 14.632C12.4935 15.176 12.8615 15.8747 12.8615 16.728C12.8615 17.2933 12.7015 17.8 12.3815 18.248C12.0722 18.6853 11.6188 19.032 11.0215 19.288C10.4242 19.544 9.68817 19.672 8.8135 19.672L9.1335 18.808C10.0082 18.808 10.7602 18.9307 11.3895 19.176C12.0295 19.4213 12.5202 19.7787 12.8615 20.248C13.2135 20.7067 13.3895 21.2613 13.3895 21.912C13.3895 22.8827 12.9842 23.64 12.1735 24.184C11.3735 24.728 10.2002 25 8.6535 25H2.3495ZM6.0615 22.36H8.3335C8.7495 22.36 9.05883 22.2853 9.2615 22.136C9.47483 21.9867 9.5815 21.768 9.5815 21.48C9.5815 21.192 9.47483 20.9733 9.2615 20.824C9.05883 20.6747 8.7495 20.6 8.3335 20.6H5.8055V18.104H7.8215C8.24817 18.104 8.5575 18.0347 8.7495 17.896C8.95217 17.7467 9.0535 17.5387 9.0535 17.272C9.0535 16.9947 8.95217 16.7867 8.7495 16.648C8.5575 16.5093 8.24817 16.44 7.8215 16.44H6.0615V22.36ZM14.7245 25V13.8H20.7085C22.2552 13.8 23.3965 14.0773 24.1325 14.632C24.8685 15.176 25.2365 15.8747 25.2365 16.728C25.2365 17.2933 25.0765 17.8 24.7565 18.248C24.4472 18.6853 23.9938 19.032 23.3965 19.288C22.7992 19.544 22.0632 19.672 21.1885 19.672L21.5085 18.808C22.3832 18.808 23.1352 18.9307 23.7645 19.176C24.4045 19.4213 24.8952 19.7787 25.2365 20.248C25.5885 20.7067 25.7645 21.2613 25.7645 21.912C25.7645 22.8827 25.3592 23.64 24.5485 24.184C23.7485 24.728 22.5752 25 21.0285 25H14.7245ZM18.4365 22.36H20.7085C21.1245 22.36 21.4338 22.2853 21.6365 22.136C21.8498 21.9867 21.9565 21.768 21.9565 21.48C21.9565 21.192 21.8498 20.9733 21.6365 20.824C21.4338 20.6747 21.1245 20.6 20.7085 20.6H18.1805V18.104H20.1965C20.6232 18.104 20.9325 18.0347 21.1245 17.896C21.3272 17.7467 21.4285 17.5387 21.4285 17.272C21.4285 16.9947 21.3272 16.7867 21.1245 16.648C20.9325 16.5093 20.6232 16.44 20.1965 16.44H18.4365V22.36ZM27.0995 25V13.8H33.0835C34.6302 13.8 35.7715 14.0773 36.5075 14.632C37.2435 15.176 37.6115 15.8747 37.6115 16.728C37.6115 17.2933 37.4515 17.8 37.1315 18.248C36.8222 18.6853 36.3688 19.032 35.7715 19.288C35.1742 19.544 34.4382 19.672 33.5635 19.672L33.8835 18.808C34.7582 18.808 35.5102 18.9307 36.1395 19.176C36.7795 19.4213 37.2702 19.7787 37.6115 20.248C37.9635 20.7067 38.1395 21.2613 38.1395 21.912C38.1395 22.8827 37.7342 23.64 36.9235 24.184C36.1235 24.728 34.9502 25 33.4035 25H27.0995ZM30.8115 22.36H33.0835C33.4995 22.36 33.8088 22.2853 34.0115 22.136C34.2248 21.9867 34.3315 21.768 34.3315 21.48C34.3315 21.192 34.2248 20.9733 34.0115 20.824C33.8088 20.6747 33.4995 20.6 33.0835 20.6H30.5555V18.104H32.5715C32.9982 18.104 33.3075 18.0347 33.4995 17.896C33.7022 17.7467 33.8035 17.5387 33.8035 17.272C33.8035 16.9947 33.7022 16.7867 33.4995 16.648C33.3075 16.5093 32.9982 16.44 32.5715 16.44H30.8115V22.36Z" fill="white"/>
</svg>
