<svg width="40" height="40" viewBox="0 0 40 40" fill="none" xmlns="http://www.w3.org/2000/svg">
<g clip-path="url(#clip0_916_9677)">
<path d="M20 7.91667C22.95 7.91667 25.5916 8.93333 27.675 10.9167L33.3833 5.20833C29.9166 1.98333 25.3916 0 20 0C12.1833 0 5.42497 4.48333 2.1333 11.0167L8.7833 16.175C10.3583 11.4333 14.7833 7.91667 20 7.91667Z" fill="#EA4335"/>
<path d="M39.15 20.4577C39.15 19.1493 39.025 17.8827 38.8333 16.666H20V24.1827H30.7833C30.3 26.6493 28.9 28.7493 26.8 30.166L33.2417 35.166C37 31.6827 39.15 26.5327 39.15 20.4577Z" fill="#4285F4"/>
<path d="M8.775 23.8259C8.375 22.6176 8.14167 21.3342 8.14167 20.0009C8.14167 18.6676 8.36667 17.3842 8.775 16.1759L2.125 11.0176C0.766667 13.7176 0 16.7676 0 20.0009C0 23.2342 0.766667 26.2842 2.13333 28.9842L8.775 23.8259Z" fill="#FBBC05"/>
<path d="M20 39.9992C25.4 39.9992 29.9417 38.2242 33.2417 35.1576L26.8 30.1576C24.9833 31.3909 22.6583 32.0826 20 32.0826C14.7833 32.0826 10.3583 28.5659 8.775 23.8242L2.125 28.9826C5.425 35.5159 12.1833 39.9992 20 39.9992Z" fill="#34A853"/>
</g>
<defs>
<clipPath id="clip0_916_9677">
<rect width="40" height="40" fill="white"/>
</clipPath>
</defs>
</svg>
