<svg width="28" height="28" viewBox="0 0 28 28" fill="none" xmlns="http://www.w3.org/2000/svg">
<path d="M10.3585 13.6884C10.1878 13.5354 9.98748 13.4192 9.76994 13.347C9.55241 13.2747 9.32233 13.2481 9.09404 13.2687C8.86576 13.2893 8.64415 13.3566 8.44304 13.4666C8.24193 13.5766 8.06562 13.7268 7.92509 13.9079L4.78718 17.8067C4.71465 17.8971 4.68095 18.0125 4.69349 18.1277C4.70602 18.243 4.76377 18.3485 4.85404 18.4212C4.94432 18.4938 5.05974 18.5277 5.17497 18.5154C5.2902 18.503 5.39582 18.4454 5.46864 18.3553L8.60655 14.4564C8.67249 14.3673 8.75642 14.2929 8.8529 14.2383C8.94939 14.1836 9.05628 14.1498 9.16666 14.1391C9.27704 14.1283 9.38844 14.1409 9.49365 14.176C9.59886 14.211 9.69553 14.2678 9.77742 14.3426L10.2169 14.733L8.42198 17.8069C8.36613 17.907 8.35178 18.025 8.382 18.1355C8.41223 18.2461 8.48462 18.3403 8.58361 18.3981C8.6826 18.4558 8.8003 18.4724 8.91141 18.4443C9.02251 18.4162 9.11816 18.3456 9.17779 18.2478L13.1742 11.4033C13.2788 11.2022 13.4369 11.0339 13.6311 10.9169C13.8252 10.7999 14.0479 10.7387 14.2745 10.7402C14.5012 10.7416 14.7231 10.8055 14.9157 10.9249C15.1084 11.0444 15.2643 11.2146 15.3664 11.417L18.4208 16.7668C18.4797 16.8649 18.5747 16.9361 18.6854 16.9651C18.7961 16.9941 18.9138 16.9785 19.0132 16.9217C19.1126 16.8649 19.1858 16.7714 19.217 16.6613C19.2483 16.5512 19.2352 16.4332 19.1804 16.3326L16.1261 10.9833C15.9463 10.6494 15.6799 10.37 15.3548 10.1745C15.0298 9.97907 14.6581 9.87477 14.2788 9.87259C13.8995 9.87041 13.5266 9.97043 13.1994 10.1621C12.8721 10.3538 12.6025 10.6301 12.4189 10.962L10.6668 13.9624L10.3585 13.6884Z" fill="#F76D2F"/>
<path d="M25.8023 16.1124C25.2697 16.1297 24.7394 16.1905 24.2167 16.294L22.0477 12.6748C21.8994 12.4154 21.6851 12.2 21.4266 12.0503C21.1682 11.9005 20.8747 11.8219 20.5759 11.8223C20.2772 11.8227 19.9839 11.9021 19.7259 12.0525C19.4678 12.2029 19.2541 12.4189 19.1065 12.6786L18.6387 13.4637C18.582 13.5633 18.5666 13.6811 18.5958 13.7919C18.6251 13.9027 18.6966 13.9977 18.7951 14.0563C18.8936 14.1149 19.0111 14.1326 19.1224 14.1055C19.2338 14.0784 19.3301 14.0087 19.3906 13.9114C19.6558 13.5115 19.9839 12.6341 20.5775 12.6874C20.7253 12.6902 20.8698 12.7322 20.9962 12.8089C21.1225 12.8857 21.2263 12.9946 21.297 13.1245L23.3169 16.4945C20.8183 17.1243 16.8883 18.7077 10.9764 22.4387C8.25447 21.0492 5.24361 20.3201 2.18755 20.3105C2.07278 20.3124 1.96337 20.3594 1.88289 20.4412C1.80242 20.5231 1.75732 20.6333 1.75732 20.748C1.75733 20.8628 1.80243 20.973 1.88292 21.0548C1.9634 21.1367 2.07282 21.1836 2.18758 21.1855C4.93054 21.1935 7.6376 21.8095 10.1138 22.9894C9.3421 23.4876 8.54195 24.0169 7.70479 24.5881C7.62936 24.6418 7.57279 24.718 7.54314 24.8057C7.51348 24.8935 7.51224 24.9883 7.53959 25.0768C7.56694 25.1653 7.6215 25.2429 7.6955 25.2986C7.7695 25.3543 7.85917 25.3852 7.95177 25.387C18.5552 18.3107 24.2838 16.8606 25.8229 16.9872C25.9376 16.9826 26.0459 16.9331 26.1244 16.8494C26.203 16.7657 26.2455 16.6544 26.2428 16.5397C26.2401 16.4249 26.1924 16.3158 26.11 16.2359C26.0276 16.1559 25.9171 16.1116 25.8023 16.1124Z" fill="#F76D2F"/>
<path d="M6.8232 10.158C10.167 10.0517 10.1662 5.20341 6.82315 5.09766C3.47945 5.20391 3.48023 10.0522 6.8232 10.158ZM6.8232 5.97266C7.25895 5.97758 7.67517 6.15412 7.98157 6.464C8.28796 6.77387 8.4598 7.19206 8.45979 7.62783C8.45978 8.06361 8.28794 8.4818 7.98153 8.79166C7.67513 9.10152 7.2589 9.27806 6.82316 9.28296C6.38741 9.27805 5.97118 9.1015 5.66479 8.79163C5.3584 8.48175 5.18656 8.06356 5.18657 7.62779C5.18657 7.19202 5.35842 6.77383 5.66482 6.46396C5.97123 6.1541 6.38746 5.97756 6.8232 5.97266Z" fill="#F76D2F"/>
<path d="M6.823 4.28995C6.93903 4.28995 7.05031 4.24385 7.13236 4.1618C7.2144 4.07976 7.2605 3.96848 7.2605 3.85245V3.05029C7.2605 2.93426 7.2144 2.82298 7.13236 2.74093C7.05031 2.65889 6.93903 2.61279 6.823 2.61279C6.70697 2.61279 6.59569 2.65889 6.51364 2.74093C6.43159 2.82298 6.3855 2.93426 6.3855 3.05029V3.85245C6.3855 3.96848 6.4316 4.07975 6.51365 4.1618C6.59569 4.24384 6.70697 4.28994 6.823 4.28995Z" fill="#F76D2F"/>
<path d="M9.49278 5.39575C9.55024 5.39581 9.60714 5.38452 9.66022 5.36252C9.71331 5.34052 9.76152 5.30825 9.80209 5.26756L10.3693 4.70039C10.4099 4.65977 10.4421 4.61155 10.4641 4.55847C10.4861 4.5054 10.4974 4.44851 10.4974 4.39107C10.4974 4.33362 10.4861 4.27673 10.4641 4.22366C10.4421 4.17059 10.4099 4.12236 10.3693 4.08174C10.3286 4.04112 10.2804 4.0089 10.2273 3.98691C10.1743 3.96493 10.1174 3.95361 10.0599 3.95361C10.0025 3.95361 9.9456 3.96493 9.89252 3.98691C9.83945 4.0089 9.79122 4.04112 9.7506 4.08174L9.18345 4.64894C9.12366 4.71064 9.08322 4.78849 9.06713 4.87289C9.05103 4.95729 9.05997 5.04455 9.09285 5.12393C9.12573 5.20331 9.18111 5.27134 9.25217 5.31964C9.32323 5.36794 9.40687 5.39439 9.49278 5.39575Z" fill="#F76D2F"/>
<path d="M10.1609 7.62793C10.1609 7.74396 10.207 7.85524 10.289 7.93728C10.3711 8.01933 10.4824 8.06542 10.5984 8.06543H11.4005C11.5166 8.06543 11.6279 8.01934 11.7099 7.93729C11.7919 7.85524 11.838 7.74396 11.838 7.62793C11.838 7.5119 11.7919 7.40062 11.7099 7.31857C11.6279 7.23652 11.5166 7.19043 11.4005 7.19043H10.5984C10.4824 7.19043 10.3711 7.23652 10.289 7.31857C10.207 7.40062 10.1609 7.5119 10.1609 7.62793Z" fill="#F76D2F"/>
<path d="M9.75053 11.1741C9.83311 11.2535 9.94353 11.2974 10.0581 11.2962C10.1726 11.2951 10.2822 11.2491 10.3632 11.1681C10.4442 11.0871 10.4902 10.9775 10.4913 10.863C10.4924 10.7484 10.4486 10.638 10.3692 10.5554L9.80201 9.98829C9.71942 9.90892 9.60901 9.8651 9.49447 9.86623C9.37993 9.86737 9.27041 9.91338 9.18942 9.99437C9.10843 10.0754 9.06243 10.1849 9.0613 10.2994C9.06017 10.414 9.104 10.5244 9.18338 10.607L9.75053 11.1741Z" fill="#F76D2F"/>
<path d="M7.2605 12.2053V11.4034C7.25832 11.2888 7.21127 11.1796 7.12945 11.0994C7.04764 11.0191 6.9376 10.9741 6.82299 10.9741C6.70837 10.9741 6.59833 11.0191 6.51652 11.0994C6.43471 11.1796 6.38767 11.2888 6.3855 11.4034V12.2053C6.38773 12.3199 6.43481 12.429 6.51662 12.5092C6.59843 12.5895 6.70843 12.6344 6.82301 12.6344C6.93759 12.6344 7.04759 12.5894 7.12939 12.5092C7.2112 12.429 7.25827 12.3199 7.2605 12.2053Z" fill="#F76D2F"/>
<path d="M3.84413 9.98823L3.27696 10.5554C3.21716 10.6171 3.17673 10.695 3.16063 10.7794C3.14453 10.8638 3.15348 10.951 3.18636 11.0304C3.21924 11.1098 3.27462 11.1778 3.34569 11.2261C3.41675 11.2744 3.50039 11.3009 3.5863 11.3022C3.85225 11.341 4.26427 10.7682 4.4628 10.6069C4.54214 10.5243 4.58593 10.4139 4.58479 10.2994C4.58364 10.1848 4.53763 10.0753 4.45665 9.99436C4.37567 9.91338 4.26616 9.86738 4.15164 9.86623C4.03712 9.86509 3.92671 9.90889 3.84413 9.98823Z" fill="#F76D2F"/>
<path d="M2.24572 8.06543H3.04766C3.16221 8.06319 3.27132 8.01611 3.35154 7.93431C3.43176 7.8525 3.4767 7.74249 3.4767 7.62792C3.47669 7.51334 3.43175 7.40333 3.35152 7.32153C3.2713 7.23973 3.16218 7.19266 3.04763 7.19043H2.24569C2.13114 7.19267 2.02203 7.23974 1.94181 7.32155C1.86158 7.40336 1.81665 7.51337 1.81665 7.62794C1.81665 7.74252 1.8616 7.85252 1.94182 7.93433C2.02205 8.01613 2.13116 8.0632 2.24572 8.06543Z" fill="#F76D2F"/>
<path d="M3.84403 5.26736C3.92661 5.34673 4.03703 5.39056 4.15156 5.38942C4.2661 5.38828 4.37562 5.34227 4.45662 5.26128C4.53761 5.18028 4.58361 5.07075 4.58473 4.95622C4.58586 4.84168 4.54203 4.73127 4.46265 4.64869L3.89551 4.08155C3.81293 4.00218 3.70251 3.95836 3.58798 3.95949C3.47344 3.96063 3.36392 4.00664 3.28293 4.08763C3.20193 4.16863 3.15594 4.27816 3.15481 4.3927C3.15368 4.50723 3.19751 4.61765 3.27689 4.70022L3.84403 5.26736Z" fill="#F76D2F"/>
</svg>
