<svg width="44" height="44" viewBox="0 0 44 44" fill="none" xmlns="http://www.w3.org/2000/svg">
<rect width="44" height="44" rx="8" fill="#FEF4F1"/>
<path d="M26.0322 25.4105C30.0214 25.4105 33.2553 22.1766 33.2553 18.1874C33.2553 14.1982 30.0214 10.9644 26.0322 10.9644C22.043 10.9644 18.8091 14.1982 18.8091 18.1874C18.8091 22.1766 22.043 25.4105 26.0322 25.4105Z" stroke="#F76D2F" stroke-miterlimit="10" stroke-linecap="round" stroke-linejoin="round"/>
<path d="M17.1631 22.7847L15.8097 24.1381C15.3776 24.5702 15.3776 25.2708 15.8097 25.7029L18.5165 28.4098C18.9486 28.8419 19.6493 28.8419 20.0814 28.4098L21.4348 27.0564" stroke="#F76D2F" stroke-miterlimit="10" stroke-linecap="round" stroke-linejoin="round"/>
<path d="M18.578 28.5614L11.304 35.8355C10.7918 36.3477 9.96144 36.3477 9.4493 35.8355L8.3841 34.7703C7.87197 34.2582 7.87197 33.4278 8.3841 32.9157L15.6582 25.6416" stroke="#F76D2F" stroke-miterlimit="10" stroke-linecap="round" stroke-linejoin="round"/>
<path d="M26.032 28.1554C31.5371 28.1554 35.9999 23.6926 35.9999 18.1876C35.9999 12.6825 31.5371 8.21973 26.032 8.21973C20.527 8.21973 16.0642 12.6825 16.0642 18.1876C16.0642 23.6926 20.527 28.1554 26.032 28.1554Z" stroke="#F76D2F" stroke-miterlimit="10" stroke-linecap="round" stroke-linejoin="round"/>
<path d="M24.2007 16.1601C24.2007 16.0734 24.2067 15.9881 24.2183 15.9046C24.3443 15.002 25.1282 14.31 26.0699 14.329C27.0225 14.3482 27.8116 15.1111 27.8609 16.0626C27.9157 17.117 27.0758 17.9915 26.0321 17.9915V19.9066" stroke="#F76D2F" stroke-miterlimit="10" stroke-linecap="round" stroke-linejoin="round"/>
<circle cx="26.032" cy="22.0466" r="0.569105" fill="black" stroke="#F76D2F" stroke-miterlimit="10" stroke-linecap="round" stroke-linejoin="round"/>
</svg>
