<svg width="28" height="28" viewBox="0 0 28 28" fill="none" xmlns="http://www.w3.org/2000/svg">
<mask id="mask0_1004_5138" style="mask-type:luminance" maskUnits="userSpaceOnUse" x="0" y="0" width="28" height="28">
<path d="M27.5 27.5V0.5H0.5V27.5H27.5Z" fill="white" stroke="white"/>
</mask>
<g mask="url(#mask0_1004_5138)">
<path d="M0.440068 13.1434L3.2445 6.03469C3.33107 5.81517 3.57924 5.70738 3.79876 5.79401L6.03028 6.67437C6.24979 6.76094 6.35758 7.00911 6.27096 7.22863L3.46653 14.3373C3.37996 14.5569 3.13179 14.6646 2.91227 14.578L0.680748 13.6977C0.461232 13.611 0.353498 13.3629 0.440068 13.1434Z" stroke="#F76D2F" stroke-miterlimit="10" stroke-linecap="round" stroke-linejoin="round"/>
<path d="M20.0932 17.1196L18.6333 15.9948" stroke="#F76D2F" stroke-miterlimit="10" stroke-linecap="round" stroke-linejoin="round"/>
<path d="M18.1396 18.6914L16.8418 17.6922" stroke="#F76D2F" stroke-miterlimit="10" stroke-linecap="round" stroke-linejoin="round"/>
<path d="M15.9926 20.123L15.0676 19.4072" stroke="#F76D2F" stroke-miterlimit="10" stroke-linecap="round" stroke-linejoin="round"/>
<path d="M6.24222 17.7715C5.78547 17.3842 5.72914 16.7 6.11643 16.2433L7.13029 15.0532C7.51758 14.5965 8.20183 14.5401 8.65853 14.9274C9.11528 15.3147 9.17161 15.9989 8.78431 16.4556L7.77046 17.6457C7.38316 18.1025 6.69897 18.1588 6.24222 17.7715Z" stroke="#F76D2F" stroke-miterlimit="10" stroke-linecap="round" stroke-linejoin="round"/>
<path d="M7.89625 19.1743C7.4395 18.787 7.38322 18.1028 7.77046 17.6461L8.78437 16.456C9.17161 15.9993 9.85586 15.943 10.3126 16.3303C10.7694 16.7175 10.8256 17.4018 10.4384 17.8584L9.42449 19.0486C9.03719 19.5053 8.353 19.5616 7.89625 19.1743Z" stroke="#F76D2F" stroke-miterlimit="10" stroke-linecap="round" stroke-linejoin="round"/>
<path d="M9.55032 20.5767C9.09357 20.1894 9.03724 19.5052 9.42454 19.0484L10.4384 17.8583C10.8257 17.4016 11.5099 17.3453 11.9667 17.7326C12.4234 18.1198 12.4797 18.804 12.0924 19.2608L11.0786 20.4509C10.6913 20.9076 10.0071 20.964 9.55032 20.5767Z" stroke="#F76D2F" stroke-miterlimit="10" stroke-linecap="round" stroke-linejoin="round"/>
<path d="M11.2044 21.979C10.7476 21.5917 10.6913 20.9075 11.0786 20.4508L12.0924 19.2607C12.4797 18.804 13.164 18.7476 13.6207 19.1349C14.0774 19.5222 14.1338 20.2064 13.7465 20.6631L12.7326 21.8532C12.3453 22.31 11.6611 22.3663 11.2044 21.979Z" stroke="#F76D2F" stroke-miterlimit="10" stroke-linecap="round" stroke-linejoin="round"/>
<path d="M21.9123 15.4043L21.3669 15.0019L18.8021 13.109L18.5082 12.9024C16.0868 13.3137 14.4635 11.9869 13.8028 11.297C13.6084 11.094 13.2876 11.0862 13.0785 11.274C10.8081 13.3132 9.49327 12.7905 8.8549 12.1839C8.54794 11.8923 8.60077 11.3895 8.95717 11.1608C10.1775 10.3775 11.3171 9.38607 12.1313 8.61339L11.9864 8.55908C11.4709 8.36593 10.9293 8.25201 10.3798 8.22111L8.8782 8.13679C8.68154 8.12574 8.48429 8.12328 8.28774 8.13591C7.93331 8.15871 7.57746 8.09943 7.24824 7.96168L6.16111 7.50679L3.49487 14.2651L5.60269 15.5945L6.26977 16.0634L7.13028 15.0534C7.51752 14.5966 8.20172 14.5403 8.65847 14.9276C9.11522 15.3148 9.17154 15.999 8.78425 16.4558C9.17154 15.999 9.85574 15.9427 10.3125 16.33C10.7692 16.7173 10.8256 17.4015 10.4383 17.8583C10.8256 17.4015 11.5098 17.3452 11.9665 17.7325C12.4233 18.1197 12.4796 18.804 12.0923 19.2607C12.4796 18.804 13.1638 18.7476 13.6205 19.1349C14.0773 19.5222 14.1336 20.2064 13.7463 20.6631L13.3351 21.1458L14.2403 21.814C14.7431 22.185 15.4515 22.1424 15.8832 21.6907C16.3033 21.2511 16.3284 20.5894 15.9925 20.1229L16.4464 20.4579C16.9641 20.8399 17.6973 20.7813 18.1227 20.2988C18.5349 19.8314 18.5245 19.1456 18.1396 18.6913L18.3946 18.8794C18.8882 19.2437 19.582 19.2107 20.0162 18.7774C20.4779 18.3168 20.4902 17.5951 20.0931 17.1194L20.4759 17.402C21.0111 17.7969 21.7647 17.6955 22.176 17.1693C22.6053 16.6199 22.4733 15.8184 21.9123 15.4043Z" stroke="#F76D2F" stroke-miterlimit="10" stroke-linecap="round" stroke-linejoin="round"/>
<path d="M17.9338 8.09427L14.2198 7.50557C13.6931 7.42206 13.1578 7.59646 12.783 7.97566C12.0105 8.75715 10.5526 10.1371 8.95736 11.161C8.60096 11.3898 8.54807 11.8925 8.85509 12.1842C9.4934 12.7907 10.8082 13.3134 13.0787 11.2742C13.2878 11.0865 13.6085 11.0942 13.8029 11.2972C14.4648 11.9883 16.0921 13.3184 18.5199 12.9009L22.1701 15.5947L24.4515 14.1293L21.8462 7.52548L20.2627 8.11003C19.8236 8.27212 19.3502 8.31872 18.8878 8.24549L17.6785 8.05381" stroke="#F76D2F" stroke-miterlimit="10" stroke-linecap="round" stroke-linejoin="round"/>
<path d="M26.5904 10.6862L24.7553 6.03466C24.6688 5.8152 24.4206 5.70741 24.2011 5.79398L21.9696 6.67434C21.7501 6.76097 21.6423 7.00914 21.7289 7.2286L24.5333 14.3373C24.6199 14.5568 24.8681 14.6646 25.0876 14.578L27.3191 13.6976C27.5387 13.611 27.6464 13.3629 27.5598 13.1434L26.5399 10.558" stroke="#F76D2F" stroke-miterlimit="10" stroke-linecap="round" stroke-linejoin="round"/>
</g>
</svg>
