<svg width="50" height="50" viewBox="0 0 50 50" fill="none" xmlns="http://www.w3.org/2000/svg">
<g clip-path="url(#clip0_919_1649)">
<path fill-rule="evenodd" clip-rule="evenodd" d="M16.6786 0.464209C17.2732 0.0769978 17.9971 -0.0584929 18.6914 0.0874756C19.3858 0.233444 19.9939 0.648945 20.3822 1.24278L25 8.3035L29.6179 1.24278C29.8042 0.935447 30.0504 0.668743 30.3419 0.45855C30.6334 0.248357 30.9642 0.0989745 31.3147 0.0192971C31.6651 -0.0603803 32.028 -0.0687228 32.3817 -0.00523356C32.7355 0.0582557 33.0728 0.192278 33.3737 0.388853C33.6745 0.585428 33.9327 0.840536 34.1329 1.13898C34.3332 1.43743 34.4713 1.77312 34.539 2.12605C34.6068 2.47899 34.6029 2.84195 34.5275 3.19333C34.452 3.54471 34.3067 3.87732 34.1 4.17135L28.2 13.2035L49.5322 45.8285C49.796 46.2326 49.9458 46.7005 49.9656 47.1828C49.9854 47.665 49.8746 48.1436 49.6448 48.568C49.415 48.9924 49.0749 49.3469 48.6602 49.5939C48.2456 49.8409 47.772 49.9713 47.2893 49.9713H28.5715V39.1892C28.5715 38.242 28.1952 37.3336 27.5254 36.6638C26.8556 35.9941 25.9472 35.6178 25 35.6178C24.0528 35.6178 23.1444 35.9941 22.4747 36.6638C21.8049 37.3336 21.4286 38.242 21.4286 39.1892V49.9749H2.70718C2.22486 49.9743 1.75166 49.8434 1.33754 49.5961C0.923427 49.3488 0.583765 48.9943 0.354419 48.57C0.125072 48.1457 0.0145511 47.6673 0.0345247 47.1854C0.0544983 46.7035 0.204225 46.2359 0.467897 45.8321L21.8 13.2035L15.9 4.17849C15.7065 3.8839 15.573 3.55401 15.5071 3.20771C15.4413 2.86142 15.4445 2.50553 15.5165 2.16047C15.5885 1.81541 15.7279 1.48795 15.9267 1.19687C16.1255 0.905789 16.3834 0.656811 16.6786 0.464209Z" fill="#114273"/>
</g>
<defs>
<clipPath id="clip0_919_1649">
<rect width="50" height="50" fill="white"/>
</clipPath>
</defs>
</svg>
