<svg width="50" height="50" viewBox="0 0 50 50" fill="none" xmlns="http://www.w3.org/2000/svg">
<g clip-path="url(#clip0_919_1656)">
<path d="M38.542 6.25H33.3337C33.0574 6.25 32.7924 6.35975 32.5971 6.5551C32.4017 6.75045 32.292 7.0154 32.292 7.29167V7.41458L39.5837 13.2479V7.29167C39.5837 7.0154 39.4739 6.75045 39.2786 6.5551C39.0832 6.35975 38.8183 6.25 38.542 6.25Z" fill="black"/>
<path d="M22.3955 19.7917C22.3955 19.101 22.6699 18.4386 23.1583 17.9502C23.6466 17.4619 24.309 17.1875 24.9997 17.1875C25.6903 17.1875 26.3527 17.4619 26.8411 17.9502C27.3295 18.4386 27.6038 19.101 27.6038 19.7917C27.6038 20.4823 27.3295 21.1447 26.8411 21.6331C26.3527 22.1215 25.6903 22.3958 24.9997 22.3958C24.309 22.3958 23.6466 22.1215 23.1583 21.6331C22.6699 21.1447 22.3955 20.4823 22.3955 19.7917Z" fill="black"/>
<path fill-rule="evenodd" clip-rule="evenodd" d="M43.2295 25.4418L44.8587 26.746C45.183 26.9987 45.5939 27.1135 46.0022 27.0653C46.4105 27.0171 46.7834 26.8099 47.04 26.4886C47.2966 26.1673 47.4162 25.7578 47.3729 25.349C47.3296 24.9401 47.1269 24.5647 46.8087 24.3043L29.8816 10.7627C28.4962 9.65405 26.7747 9.05005 25.0003 9.05005C23.226 9.05005 21.5045 9.65405 20.1191 10.7627L3.19199 24.3043C2.86821 24.5632 2.66052 24.9401 2.61461 25.3521C2.5687 25.7641 2.68834 26.1774 2.9472 26.5012C3.20606 26.825 3.58295 27.0327 3.99494 27.0786C4.40693 27.1245 4.82029 27.0049 5.14408 26.746L6.77116 25.4418V46.8793H4.16699C3.75259 46.8793 3.35516 47.044 3.06214 47.337C2.76911 47.63 2.60449 48.0274 2.60449 48.4418C2.60449 48.8562 2.76911 49.2537 3.06214 49.5467C3.35516 49.8397 3.75259 50.0043 4.16699 50.0043H45.8337C46.2481 50.0043 46.6455 49.8397 46.9385 49.5467C47.2315 49.2537 47.3962 48.8562 47.3962 48.4418C47.3962 48.0274 47.2315 47.63 46.9385 47.337C46.6455 47.044 46.2481 46.8793 45.8337 46.8793H43.2295V25.4418ZM19.2712 22.4002C19.2712 20.8807 19.8748 19.4235 20.9492 18.349C22.0236 17.2746 23.4809 16.671 25.0003 16.671C26.5198 16.671 27.977 17.2746 29.0515 18.349C30.1259 19.4235 30.7295 20.8807 30.7295 22.4002C30.7295 23.9196 30.1259 25.3769 29.0515 26.4513C27.977 27.5257 26.5198 28.1293 25.0003 28.1293C23.4809 28.1293 22.0236 27.5257 20.9492 26.4513C19.8748 25.3769 19.2712 23.9196 19.2712 22.4002ZM25.1045 30.2127C26.4878 30.2127 27.6816 30.2127 28.6378 30.3418C29.6628 30.4793 30.6441 30.7898 31.4399 31.5856C32.2357 32.3814 32.5462 33.3627 32.6837 34.3877C32.8045 35.2835 32.8128 36.3877 32.8128 37.6648V46.8793H29.6878V38.0252C29.6878 36.5085 29.6837 35.5252 29.5878 34.8043C29.4962 34.1273 29.3503 33.9148 29.2295 33.796C29.1087 33.6773 28.8982 33.5293 28.2212 33.4377C27.4982 33.3418 26.517 33.3377 25.0003 33.3377C23.4837 33.3377 22.5003 33.3418 21.7795 33.4377C21.1024 33.5293 20.8899 33.6773 20.7712 33.796C20.6524 33.9148 20.5045 34.1273 20.4128 34.8043C20.317 35.5273 20.3128 36.5085 20.3128 38.0252V46.8793H17.1878V37.921C17.1878 36.5377 17.1878 35.3439 17.317 34.3877C17.4545 33.3627 17.7649 32.3814 18.5607 31.5856C19.3566 30.7898 20.3399 30.4793 21.3628 30.3418C22.3191 30.2127 23.5128 30.2127 24.8982 30.2127H25.1045Z" fill="#114273"/>
<path d="M22.3955 19.7917C22.3955 19.101 22.6699 18.4386 23.1583 17.9502C23.6466 17.4619 24.309 17.1875 24.9997 17.1875C25.6903 17.1875 26.3527 17.4619 26.8411 17.9502C27.3295 18.4386 27.6038 19.101 27.6038 19.7917C27.6038 20.4823 27.3295 21.1447 26.8411 21.6331C26.3527 22.1215 25.6903 22.3958 24.9997 22.3958C24.309 22.3958 23.6466 22.1215 23.1583 21.6331C22.6699 21.1447 22.3955 20.4823 22.3955 19.7917Z" fill="black"/>
</g>
<defs>
<clipPath id="clip0_919_1656">
<rect width="50" height="50" fill="white"/>
</clipPath>
</defs>
</svg>
