<svg width="50" height="50" viewBox="0 0 50 50" fill="none" xmlns="http://www.w3.org/2000/svg">
<path d="M3.56339 25.2617H20.6348C23.0045 25.2617 24.1973 24.0679 24.1973 21.6099V13.4483C24.1973 10.9894 23.0045 9.81348 20.6348 9.81348H3.5625C1.19375 9.81258 0 10.9894 0 13.4465V21.6081C0 24.067 1.19375 25.2617 3.56339 25.2617ZM34.0518 39.9795H46.4179C48.8062 39.9795 50 38.7858 50 36.3269V16.1385C50 13.6795 48.8062 12.4867 46.4179 12.4867H34.0518C31.6464 12.4867 30.4527 13.6795 30.4527 16.1385V36.3278C30.4527 38.7867 31.6464 39.9795 34.0518 39.9795ZM7.89375 42.4572H22.7902C25.1964 42.4572 26.3902 41.2813 26.3902 38.8224V32.9242C26.3902 30.4653 25.1964 29.2715 22.7902 29.2715H7.89375C5.50625 29.2715 4.3125 30.4653 4.3125 32.9242V38.8224C4.3125 41.2813 5.50625 42.4572 7.89375 42.4572Z" fill="#114273"/>
</svg>
