<svg width="28" height="28" viewBox="0 0 28 28" fill="none" xmlns="http://www.w3.org/2000/svg">
<path d="M5.90252 13.6989C8.14019 13.9743 10.1865 12.3118 10.4724 9.98659C10.7582 7.66142 8.09702 5.42025 9.06302 2.33325C4.27619 3.02625 2.62652 6.88442 2.36636 8.99025C2.08052 11.3154 3.66486 13.4236 5.90252 13.6989Z" stroke="#F76D2F" stroke-linejoin="round"/>
<path d="M8.1672 23.3333C5.92137 17.8779 5.56553 13.0596 5.98903 9.33325" stroke="#F76D2F" stroke-linecap="round" stroke-linejoin="round"/>
<path d="M11.0926 20.6126C12.4634 23.4033 15.7744 24.1733 18.4869 22.3323C21.1994 20.4913 21.6276 15.3883 25.6666 13.6091C21.3557 8.83397 15.9797 10.5583 13.5239 12.2255C10.8102 14.0665 9.72172 17.822 11.0926 20.6138V20.6126Z" stroke="#F76D2F" stroke-linejoin="round"/>
<path d="M7 25.6666C9.77433 20.8879 13.1413 18.0016 16.3333 16.3333" stroke="#F76D2F" stroke-linecap="round" stroke-linejoin="round"/>
</svg>
