<svg width="18" height="18" viewBox="0 0 18 18" fill="none" xmlns="http://www.w3.org/2000/svg">
<path d="M8.94842 12.1592C8.3613 12.1592 7.82389 12.0148 7.3362 11.7259C6.84851 11.4371 6.46026 11.0489 6.17143 10.5612C5.88261 10.0735 5.73819 9.53607 5.73819 8.94895C5.73819 8.3571 5.88261 7.81969 6.17143 7.33674C6.46026 6.84905 6.84851 6.46079 7.3362 6.17196C7.82389 5.88314 8.3613 5.73872 8.94842 5.73872C9.54028 5.73872 10.0777 5.88314 10.5606 6.17196C11.0483 6.46079 11.4366 6.84905 11.7254 7.33674C12.0142 7.81969 12.1586 8.3571 12.1586 8.94895C12.1586 9.53607 12.0142 10.0735 11.7254 10.5612C11.4366 11.0489 11.0483 11.4371 10.5606 11.7259C10.0777 12.0148 9.54028 12.1592 8.94842 12.1592ZM8.2666 4.31827V8.84533e-05H9.63024V4.31827H8.2666ZM12.6984 6.16486L11.7325 5.19895L14.8007 2.13077L15.7666 3.09668L12.6984 6.16486ZM13.5791 9.63077V8.26713H17.8973V9.63077H13.5791ZM14.8007 15.7671L11.7325 12.699L12.6984 11.733L15.7666 14.8012L14.8007 15.7671ZM8.2666 17.8978V13.5796H9.63024V17.8978H8.2666ZM3.09615 15.7671L2.13024 14.8012L5.19842 11.733L6.16433 12.699L3.09615 15.7671ZM-0.000443906 9.63077V8.26713H4.31774V9.63077H-0.000443906ZM5.19842 6.16486L2.13024 3.09668L3.09615 2.13077L6.16433 5.19895L5.19842 6.16486Z" fill="#F76D2F"/>
</svg>
