<svg width="28" height="28" viewBox="0 0 28 28" fill="none" xmlns="http://www.w3.org/2000/svg">
<path d="M9.90187 24.5H18.0989C18.8341 24.5 19.5588 24.3263 20.2141 23.993C20.8695 23.6597 21.4368 23.1764 21.8698 22.5823C22.3029 21.9882 22.5895 21.3001 22.7062 20.5743C22.8229 19.8484 22.7665 19.1053 22.5415 18.4053L20.5512 12.215C20.1733 11.0392 19.432 10.0137 18.434 9.28623C17.436 8.55871 16.2329 8.16671 14.9979 8.16667H13.0029C11.7679 8.16671 10.5647 8.55871 9.56676 9.28623C8.56878 10.0137 7.82745 11.0392 7.44954 12.215L5.4592 18.4053C5.23424 19.1053 5.17782 19.8484 5.29455 20.5743C5.41128 21.3001 5.69785 21.9882 6.13092 22.5823C6.56398 23.1764 7.13128 23.6597 7.78659 23.993C8.44191 24.3263 9.16669 24.5 9.90187 24.5ZM17.5004 3.5C16.7226 6.61111 15.5559 8.16667 14.0004 8.16667C12.4448 8.16667 11.2781 6.61111 10.5004 3.5H17.5004Z" stroke="#F76D2F" stroke-linecap="round" stroke-linejoin="round"/>
<path d="M16.3337 12.8334H13.417C12.9529 12.8334 12.5077 13.0178 12.1796 13.346C11.8514 13.6742 11.667 14.1193 11.667 14.5834C11.667 15.0475 11.8514 15.4927 12.1796 15.8209C12.5077 16.149 12.9529 16.3334 13.417 16.3334H14.5837C15.0478 16.3334 15.4929 16.5178 15.8211 16.846C16.1493 17.1742 16.3337 17.6193 16.3337 18.0834C16.3337 18.5475 16.1493 18.9927 15.8211 19.3209C15.4929 19.649 15.0478 19.8334 14.5837 19.8334H11.667M14.0003 11.6667V12.8334M14.0003 19.8334V21.0001" stroke="#F76D2F" stroke-linecap="round" stroke-linejoin="round"/>
</svg>
