<svg width="199" height="14" viewBox="0 0 199 14" fill="none" xmlns="http://www.w3.org/2000/svg">
<path d="M2.75961 13.4404V12.7804C3.25294 12.7804 3.60628 12.7538 3.81961 12.7004C4.03294 12.6471 4.16628 12.5471 4.21961 12.4004C4.28628 12.2404 4.31961 12.0004 4.31961 11.6804V0.94043H3.37961C2.85961 0.94043 2.41294 1.04043 2.03961 1.24043C1.67961 1.4271 1.38628 1.7271 1.15961 2.14043C0.946276 2.55376 0.792943 3.0871 0.699609 3.74043H-0.000390597L0.0196094 0.240429H11.6596V3.74043H10.9796C10.8463 3.0071 10.6596 2.44043 10.4196 2.04043C10.1929 1.64043 9.89961 1.36043 9.53961 1.20043C9.17961 1.0271 8.73294 0.94043 8.19961 0.94043H7.35961V11.6804C7.35961 12.0004 7.39294 12.2404 7.45961 12.4004C7.52628 12.5471 7.66628 12.6471 7.87961 12.7004C8.10628 12.7538 8.45294 12.7804 8.91961 12.7804V13.4404H2.75961ZM12.3005 13.4404V12.7804C12.7672 12.7804 13.1005 12.7538 13.3005 12.7004C13.5139 12.6471 13.6405 12.5404 13.6805 12.3804C13.7339 12.2204 13.7605 11.9804 13.7605 11.6604V2.04043C13.7605 1.7071 13.7272 1.46043 13.6605 1.30043C13.6072 1.14043 13.4739 1.03376 13.2605 0.980429C13.0605 0.927096 12.7405 0.900429 12.3005 0.900429V0.240429H18.4605C19.5939 0.240429 20.5139 0.367096 21.2205 0.620429C21.9272 0.873762 22.4539 1.24043 22.8005 1.72043C23.1472 2.20043 23.3205 2.7871 23.3205 3.48043C23.3205 4.1471 23.1739 4.71376 22.8805 5.18043C22.6005 5.63376 22.2072 5.99376 21.7005 6.26043C21.2072 6.51376 20.6539 6.69376 20.0405 6.80043V6.84043C20.6139 6.96043 21.0672 7.14043 21.4005 7.38043C21.7339 7.62043 21.9939 7.94043 22.1805 8.34043C22.3672 8.74043 22.5139 9.23376 22.6205 9.82043L22.7805 10.6604C22.8872 11.1138 23.0005 11.5004 23.1205 11.8204C23.2539 12.1404 23.4339 12.3804 23.6605 12.5404C23.8872 12.7004 24.2005 12.7804 24.6005 12.7804V13.4404H20.9405C20.7539 13.2938 20.5805 13.0604 20.4205 12.7404C20.2605 12.4071 20.1272 12.0271 20.0205 11.6004L19.4205 8.84043C19.3272 8.3471 19.1539 7.97376 18.9005 7.72043C18.6605 7.45376 18.2739 7.32043 17.7405 7.32043H16.8005V11.6604C16.8005 11.9804 16.8272 12.2204 16.8805 12.3804C16.9472 12.5404 17.0805 12.6471 17.2805 12.7004C17.4939 12.7538 17.8072 12.7804 18.2205 12.7804V13.4404H12.3005ZM16.8005 6.52043H17.6205C18.5272 6.52043 19.1939 6.30043 19.6205 5.86043C20.0472 5.4071 20.2605 4.70043 20.2605 3.74043C20.2605 2.82043 20.0605 2.13376 19.6605 1.68043C19.2605 1.2271 18.6205 1.00043 17.7405 1.00043C17.3405 1.00043 17.0805 1.05376 16.9605 1.16043C16.8539 1.2671 16.8005 1.46043 16.8005 1.74043V6.52043ZM24.4037 13.4404V12.7804C24.777 12.7804 25.0703 12.7538 25.2837 12.7004C25.497 12.6471 25.6637 12.5404 25.7837 12.3804C25.917 12.2204 26.0437 11.9871 26.1637 11.6804L30.5637 0.240429H32.4837L36.6437 11.7804C36.7503 12.0738 36.8503 12.2938 36.9437 12.4404C37.0503 12.5738 37.197 12.6671 37.3837 12.7204C37.5703 12.7604 37.837 12.7804 38.1837 12.7804V13.4404H32.1837V12.7804H33.1437C33.4103 12.7804 33.577 12.7071 33.6437 12.5604C33.7103 12.4004 33.697 12.1938 33.6037 11.9404L30.4237 3.08043H30.3637L27.2237 12.0004C27.1437 12.2671 27.137 12.4671 27.2037 12.6004C27.2837 12.7204 27.457 12.7804 27.7237 12.7804H28.5637V13.4404H24.4037ZM28.0637 8.76043L28.1837 8.02043H32.6037L32.7037 8.76043H28.0637ZM38.6834 13.4404V12.7804C39.2034 12.7804 39.57 12.7538 39.7834 12.7004C40.01 12.6471 40.1434 12.5404 40.1834 12.3804C40.2367 12.2204 40.2634 11.9804 40.2634 11.6604V2.04043C40.2634 1.7071 40.23 1.46043 40.1634 1.30043C40.11 1.14043 39.97 1.03376 39.7434 0.980429C39.5167 0.927096 39.1634 0.900429 38.6834 0.900429V0.240429H45.2434C47.5234 0.253762 49.2567 0.773762 50.4434 1.80043C51.63 2.81376 52.2234 4.43376 52.2234 6.66043C52.2234 8.30043 51.9234 9.62043 51.3234 10.6204C50.7367 11.6071 49.8767 12.3271 48.7434 12.7804C47.61 13.2204 46.2234 13.4404 44.5834 13.4404H38.6834ZM44.6834 12.6804C45.43 12.6804 46.07 12.5604 46.6034 12.3204C47.1367 12.0804 47.5767 11.7204 47.9234 11.2404C48.27 10.7604 48.53 10.1471 48.7034 9.40043C48.8767 8.64043 48.9634 7.7471 48.9634 6.72043C48.9634 5.44043 48.81 4.38043 48.5034 3.54043C48.1967 2.6871 47.7367 2.05376 47.1234 1.64043C46.51 1.21376 45.7367 1.00043 44.8034 1.00043C44.4567 1.00043 44.17 1.01376 43.9434 1.04043C43.73 1.0671 43.57 1.13376 43.4634 1.24043C43.3567 1.3471 43.3034 1.51376 43.3034 1.74043V11.5204C43.3034 11.8404 43.3434 12.0871 43.4234 12.2604C43.5167 12.4338 43.6634 12.5471 43.8634 12.6004C44.0767 12.6538 44.35 12.6804 44.6834 12.6804ZM53.2615 13.4404V12.7804C53.7282 12.7804 54.0615 12.7538 54.2615 12.7004C54.4748 12.6471 54.6015 12.5404 54.6415 12.3804C54.6948 12.2204 54.7215 11.9804 54.7215 11.6604V2.06043C54.7215 1.7271 54.6882 1.48043 54.6215 1.32043C54.5682 1.1471 54.4348 1.03376 54.2215 0.980429C54.0215 0.927096 53.7015 0.900429 53.2615 0.900429V0.240429H59.2015V0.900429C58.7748 0.900429 58.4548 0.927096 58.2415 0.980429C58.0415 1.03376 57.9082 1.1471 57.8415 1.32043C57.7882 1.48043 57.7615 1.7271 57.7615 2.06043V11.6604C57.7615 11.9938 57.7948 12.2404 57.8615 12.4004C57.9282 12.5604 58.0615 12.6671 58.2615 12.7204C58.4615 12.7604 58.7748 12.7804 59.2015 12.7804V13.4404H53.2615ZM62.6229 13.4404V12.7804C63.1162 12.7804 63.4696 12.7538 63.6829 12.7004C63.8962 12.6471 64.0296 12.5471 64.0829 12.4004C64.1496 12.2404 64.1829 12.0004 64.1829 11.6804V0.94043H63.2429C62.7229 0.94043 62.2762 1.04043 61.9029 1.24043C61.5429 1.4271 61.2496 1.7271 61.0229 2.14043C60.8096 2.55376 60.6562 3.0871 60.5629 3.74043H59.8629L59.8829 0.240429H71.5229V3.74043H70.8429C70.7096 3.0071 70.5229 2.44043 70.2829 2.04043C70.0562 1.64043 69.7629 1.36043 69.4029 1.20043C69.0429 1.0271 68.5962 0.94043 68.0629 0.94043H67.2229V11.6804C67.2229 12.0004 67.2562 12.2404 67.3229 12.4004C67.3896 12.5471 67.5296 12.6471 67.7429 12.7004C67.9696 12.7538 68.3162 12.7804 68.7829 12.7804V13.4404H62.6229ZM72.1638 13.4404V12.7804C72.6305 12.7804 72.9638 12.7538 73.1638 12.7004C73.3772 12.6471 73.5038 12.5404 73.5438 12.3804C73.5972 12.2204 73.6238 11.9804 73.6238 11.6604V2.06043C73.6238 1.7271 73.5905 1.48043 73.5238 1.32043C73.4705 1.1471 73.3372 1.03376 73.1238 0.980429C72.9238 0.927096 72.6038 0.900429 72.1638 0.900429V0.240429H78.1038V0.900429C77.6772 0.900429 77.3572 0.927096 77.1438 0.980429C76.9438 1.03376 76.8105 1.1471 76.7438 1.32043C76.6905 1.48043 76.6638 1.7271 76.6638 2.06043V11.6604C76.6638 11.9938 76.6972 12.2404 76.7638 12.4004C76.8305 12.5604 76.9638 12.6671 77.1638 12.7204C77.3638 12.7604 77.6772 12.7804 78.1038 12.7804V13.4404H72.1638ZM85.3746 13.6604C83.9079 13.6604 82.6879 13.3871 81.7146 12.8404C80.7413 12.2938 80.0013 11.5138 79.4946 10.5004C79.0013 9.47376 78.7546 8.2471 78.7546 6.82043C78.7546 5.75376 78.8946 4.80043 79.1746 3.96043C79.4546 3.12043 79.8679 2.4071 80.4146 1.82043C80.9746 1.22043 81.6679 0.767095 82.4946 0.460429C83.3213 0.153762 84.2813 0.000428677 85.3746 0.000428677C86.4546 0.000428677 87.4079 0.153762 88.2346 0.460429C89.0746 0.767095 89.7679 1.22043 90.3146 1.82043C90.8746 2.4071 91.2879 3.12043 91.5546 3.96043C91.8346 4.80043 91.9746 5.75376 91.9746 6.82043C91.9746 8.2471 91.7279 9.47376 91.2346 10.5004C90.7413 11.5138 90.0013 12.2938 89.0146 12.8404C88.0413 13.3871 86.8279 13.6604 85.3746 13.6604ZM85.3746 12.9404C85.8413 12.9404 86.2546 12.8604 86.6146 12.7004C86.9879 12.5271 87.3079 12.2738 87.5746 11.9404C87.8413 11.6071 88.0546 11.1938 88.2146 10.7004C88.3879 10.2071 88.5146 9.64043 88.5946 9.00043C88.6746 8.3471 88.7146 7.62043 88.7146 6.82043C88.7146 5.82043 88.6413 4.94043 88.4946 4.18043C88.3613 3.42043 88.1546 2.7871 87.8746 2.28043C87.6079 1.76043 87.2613 1.37376 86.8346 1.12043C86.4213 0.853762 85.9346 0.720429 85.3746 0.720429C84.7746 0.720429 84.2613 0.853762 83.8346 1.12043C83.4079 1.37376 83.0613 1.76043 82.7946 2.28043C82.5279 2.7871 82.3346 3.42043 82.2146 4.18043C82.0946 4.94043 82.0346 5.82043 82.0346 6.82043C82.0346 7.62043 82.0746 8.3471 82.1546 9.00043C82.2346 9.64043 82.3546 10.2071 82.5146 10.7004C82.6746 11.1938 82.8879 11.6071 83.1546 11.9404C83.4213 12.2738 83.7346 12.5271 84.0946 12.7004C84.4679 12.8604 84.8946 12.9404 85.3746 12.9404ZM102.009 13.5804L94.8891 2.70043H94.8491V11.7404C94.8491 12.1138 94.9158 12.3804 95.0491 12.5404C95.1958 12.7004 95.4625 12.7804 95.8491 12.7804H96.5291V13.4404H92.5291V12.7804H93.0491C93.6758 12.7804 93.9891 12.4338 93.9891 11.7404V2.04043C93.9891 1.7071 93.9558 1.46043 93.8891 1.30043C93.8358 1.14043 93.7025 1.03376 93.4891 0.980429C93.2891 0.927096 92.9625 0.900429 92.5091 0.900429V0.240429H96.8891L103.089 9.82043H103.149V1.86043C103.149 1.22043 102.809 0.900429 102.129 0.900429H101.429V0.240429H105.389V0.900429H104.929C104.316 0.900429 104.009 1.22043 104.009 1.86043V13.5804H102.009ZM105.689 13.4404V12.7804C106.062 12.7804 106.355 12.7538 106.569 12.7004C106.782 12.6471 106.949 12.5404 107.069 12.3804C107.202 12.2204 107.329 11.9871 107.449 11.6804L111.849 0.240429H113.769L117.929 11.7804C118.035 12.0738 118.135 12.2938 118.229 12.4404C118.335 12.5738 118.482 12.6671 118.669 12.7204C118.855 12.7604 119.122 12.7804 119.469 12.7804V13.4404H113.469V12.7804H114.429C114.695 12.7804 114.862 12.7071 114.929 12.5604C114.995 12.4004 114.982 12.1938 114.889 11.9404L111.709 3.08043H111.649L108.509 12.0004C108.429 12.2671 108.422 12.4671 108.489 12.6004C108.569 12.7204 108.742 12.7804 109.009 12.7804H109.849V13.4404H105.689ZM109.349 8.76043L109.469 8.02043H113.889L113.989 8.76043H109.349ZM119.969 13.4404V12.7804C120.435 12.7804 120.769 12.7538 120.969 12.7004C121.182 12.6471 121.309 12.5404 121.349 12.3804C121.402 12.2204 121.429 11.9804 121.429 11.6604V2.06043C121.429 1.71376 121.402 1.46043 121.349 1.30043C121.295 1.14043 121.162 1.03376 120.949 0.980429C120.749 0.927096 120.422 0.900429 119.969 0.900429V0.240429H125.949V0.900429C125.509 0.900429 125.182 0.927096 124.969 0.980429C124.755 1.03376 124.615 1.14043 124.549 1.30043C124.495 1.46043 124.469 1.71376 124.469 2.06043V11.4204C124.469 11.8071 124.509 12.0938 124.589 12.2804C124.669 12.4538 124.829 12.5671 125.069 12.6204C125.309 12.6604 125.669 12.6804 126.149 12.6804C126.869 12.6804 127.469 12.6004 127.949 12.4404C128.429 12.2671 128.822 11.9804 129.129 11.5804C129.435 11.1804 129.669 10.6204 129.829 9.90043H130.529L130.289 13.4404H119.969ZM135.277 13.4404V12.7804C135.717 12.7804 136.037 12.7538 136.237 12.7004C136.45 12.6338 136.584 12.5204 136.637 12.3604C136.704 12.1871 136.737 11.9538 136.737 11.6604V2.06043C136.737 1.71376 136.704 1.46043 136.637 1.30043C136.584 1.1271 136.45 1.02043 136.237 0.980429C136.037 0.927096 135.717 0.900429 135.277 0.900429V0.240429H141.497C142.51 0.240429 143.377 0.347096 144.097 0.560429C144.83 0.760429 145.39 1.0871 145.777 1.54043C146.164 1.98043 146.357 2.56043 146.357 3.28043C146.357 4.09376 146.104 4.75376 145.597 5.26043C145.104 5.75376 144.384 6.10043 143.437 6.30043V6.32043C144.197 6.45376 144.837 6.67376 145.357 6.98043C145.877 7.2871 146.264 7.68043 146.517 8.16043C146.784 8.64043 146.917 9.22043 146.917 9.90043C146.917 10.7271 146.717 11.4004 146.317 11.9204C145.917 12.4404 145.33 12.8271 144.557 13.0804C143.784 13.3204 142.837 13.4404 141.717 13.4404H135.277ZM141.177 12.6804C141.75 12.6804 142.224 12.5804 142.597 12.3804C142.984 12.1671 143.27 11.8538 143.457 11.4404C143.644 11.0271 143.737 10.5204 143.737 9.92043C143.737 8.93376 143.484 8.1671 142.977 7.62043C142.47 7.07376 141.75 6.80043 140.817 6.80043H139.777V11.3804C139.777 11.8604 139.877 12.2004 140.077 12.4004C140.277 12.5871 140.644 12.6804 141.177 12.6804ZM139.777 6.02043H140.777C141.644 6.02043 142.297 5.80043 142.737 5.36043C143.177 4.92043 143.397 4.2871 143.397 3.46043C143.397 2.91376 143.304 2.46043 143.117 2.10043C142.93 1.74043 142.644 1.4671 142.257 1.28043C141.87 1.09376 141.384 1.00043 140.797 1.00043C140.517 1.00043 140.304 1.02043 140.157 1.06043C140.01 1.10043 139.91 1.18043 139.857 1.30043C139.804 1.42043 139.777 1.5871 139.777 1.80043V6.02043ZM147.185 13.4404V12.7804C147.558 12.7804 147.852 12.7538 148.065 12.7004C148.278 12.6471 148.445 12.5404 148.565 12.3804C148.698 12.2204 148.825 11.9871 148.945 11.6804L153.345 0.240429H155.265L159.425 11.7804C159.532 12.0738 159.632 12.2938 159.725 12.4404C159.832 12.5738 159.978 12.6671 160.165 12.7204C160.352 12.7604 160.618 12.7804 160.965 12.7804V13.4404H154.965V12.7804H155.925C156.192 12.7804 156.358 12.7071 156.425 12.5604C156.492 12.4004 156.478 12.1938 156.385 11.9404L153.205 3.08043H153.145L150.005 12.0004C149.925 12.2671 149.918 12.4671 149.985 12.6004C150.065 12.7204 150.238 12.7804 150.505 12.7804H151.345V13.4404H147.185ZM150.845 8.76043L150.965 8.02043H155.385L155.485 8.76043H150.845ZM170.865 13.5804L163.745 2.70043H163.705V11.7404C163.705 12.1138 163.771 12.3804 163.905 12.5404C164.051 12.7004 164.318 12.7804 164.705 12.7804H165.385V13.4404H161.385V12.7804H161.905C162.531 12.7804 162.845 12.4338 162.845 11.7404V2.04043C162.845 1.7071 162.811 1.46043 162.745 1.30043C162.691 1.14043 162.558 1.03376 162.345 0.980429C162.145 0.927096 161.818 0.900429 161.365 0.900429V0.240429H165.745L171.945 9.82043H172.005V1.86043C172.005 1.22043 171.665 0.900429 170.985 0.900429H170.285V0.240429H174.245V0.900429H173.785C173.171 0.900429 172.865 1.22043 172.865 1.86043V13.5804H170.865ZM182.704 13.4404V12.7804H183.224C183.531 12.7804 183.691 12.6938 183.704 12.5204C183.718 12.3338 183.604 12.0671 183.364 11.7204L179.964 6.66043L182.024 4.60043L185.684 9.88043C186.164 10.5738 186.564 11.1338 186.884 11.5604C187.204 11.9871 187.504 12.3004 187.784 12.5004C188.064 12.6871 188.398 12.7804 188.784 12.7804V13.4404H182.704ZM175.144 13.4404V12.7804C175.611 12.7804 175.944 12.7538 176.144 12.7004C176.358 12.6471 176.484 12.5404 176.524 12.3804C176.578 12.2204 176.604 11.9804 176.604 11.6604V2.06043C176.604 1.71376 176.578 1.46043 176.524 1.30043C176.471 1.14043 176.338 1.03376 176.124 0.980429C175.924 0.927096 175.598 0.900429 175.144 0.900429V0.240429H181.084V0.900429C180.658 0.900429 180.338 0.927096 180.124 0.980429C179.924 1.03376 179.791 1.1471 179.724 1.32043C179.671 1.48043 179.644 1.7271 179.644 2.06043V11.6604C179.644 11.9804 179.671 12.2271 179.724 12.4004C179.791 12.5604 179.924 12.6671 180.124 12.7204C180.324 12.7604 180.644 12.7804 181.084 12.7804V13.4404H175.144ZM179.184 8.12043V7.10043L184.264 1.80043C184.478 1.56043 184.571 1.35376 184.544 1.18043C184.518 0.993762 184.364 0.900429 184.084 0.900429H183.484V0.240429H187.764V0.900429C187.351 0.900429 186.964 0.987096 186.604 1.16043C186.258 1.32043 185.898 1.5671 185.524 1.90043C185.164 2.22043 184.751 2.61376 184.284 3.08043L179.184 8.12043ZM193.557 13.6804C192.997 13.6804 192.524 13.6271 192.137 13.5204C191.764 13.4271 191.444 13.3338 191.177 13.2404C190.91 13.1338 190.684 13.0804 190.497 13.0804C190.35 13.0804 190.23 13.1138 190.137 13.1804C190.044 13.2471 189.97 13.3338 189.917 13.4404H189.357L189.097 9.62043H189.797C189.877 9.98043 190.01 10.3604 190.197 10.7604C190.397 11.1471 190.65 11.5138 190.957 11.8604C191.277 12.2071 191.644 12.4871 192.057 12.7004C192.484 12.9138 192.964 13.0204 193.497 13.0204C193.937 13.0204 194.344 12.9471 194.717 12.8004C195.09 12.6404 195.39 12.3938 195.617 12.0604C195.857 11.7138 195.977 11.2871 195.977 10.7804C195.977 10.1804 195.784 9.69376 195.397 9.32043C195.024 8.9471 194.477 8.6271 193.757 8.36043L192.737 8.00043C192.057 7.73376 191.45 7.43376 190.917 7.10043C190.397 6.75376 189.99 6.3271 189.697 5.82043C189.404 5.31376 189.257 4.69376 189.257 3.96043C189.257 3.16043 189.437 2.4671 189.797 1.88043C190.157 1.28043 190.67 0.820429 191.337 0.500429C192.004 0.167096 192.777 0.000428677 193.657 0.000428677C194.137 0.000428677 194.537 0.0470955 194.857 0.140429C195.177 0.220429 195.45 0.307096 195.677 0.400429C195.917 0.493762 196.144 0.540429 196.357 0.540429C196.517 0.540429 196.624 0.507096 196.677 0.440429C196.744 0.373762 196.797 0.280429 196.837 0.160429H197.377L197.577 3.66043H196.897C196.764 3.02043 196.544 2.48043 196.237 2.04043C195.944 1.5871 195.584 1.24043 195.157 1.00043C194.73 0.760429 194.25 0.640429 193.717 0.640429C193.024 0.640429 192.457 0.833762 192.017 1.22043C191.577 1.59376 191.357 2.07376 191.357 2.66043C191.357 3.14043 191.497 3.5271 191.777 3.82043C192.057 4.11376 192.39 4.35376 192.777 4.54043C193.177 4.71376 193.53 4.8671 193.837 5.00043L195.137 5.48043C195.75 5.69376 196.29 5.98043 196.757 6.34043C197.224 6.6871 197.59 7.1071 197.857 7.60043C198.124 8.09376 198.257 8.6871 198.257 9.38043C198.257 10.0471 198.137 10.6471 197.897 11.1804C197.67 11.7138 197.344 12.1671 196.917 12.5404C196.504 12.9138 196.01 13.2004 195.437 13.4004C194.864 13.5871 194.237 13.6804 193.557 13.6804Z" fill="#114273"/>
</svg>
