<svg width="52" height="31" viewBox="0 0 52 31" fill="none" xmlns="http://www.w3.org/2000/svg">
<rect width="52" height="31" rx="2" fill="#2557D6"/>
<path d="M0.000333333 14.5956H2.4964L3.0592 13.3859H4.3192L4.88053 14.5956H9.79173V13.6708L10.2301 14.5996H12.7797L13.2181 13.6571V14.5956H25.4234L25.4177 12.61H25.6539C25.8191 12.6152 25.8675 12.6287 25.8675 12.872V14.5956H32.1801V14.1334C32.6893 14.3764 33.4813 14.5956 34.5233 14.5956H37.179L37.7473 13.386H39.0073L39.5631 14.5956H44.6808V13.4466L45.4559 14.5956H49.5569V7H45.4982V7.89702L44.9301 7H40.7653V7.89702L40.2435 7H34.6181C33.6766 7 32.8489 7.11712 32.1802 7.44349V7H28.2983V7.44349C27.8727 7.10707 27.293 7 26.6483 7H12.4656L11.514 8.96174L10.5367 7H6.06973V7.89702L5.57893 7H1.76927L0 10.6113V14.5954H0.000199999L0.000333333 14.5956ZM15.7563 13.5H14.2587L14.2532 9.23479L12.1349 13.5H10.8522L8.72833 9.23101V13.5H5.757L5.19567 12.2853H2.15387L1.58687 13.5H0.000133334L2.6162 8.05406H4.7868L7.2714 13.2102V8.05406H9.6558L11.5677 11.7485L13.3239 8.05406H15.7563L15.7563 13.5ZM4.69633 11.155L3.69647 8.98394L2.70213 11.155H4.69633ZM21.7163 13.4999H16.8361V8.054H21.7163V9.18804H18.2971V10.1697H21.6344V11.286H18.297V12.3736H21.7163L21.7163 13.4999ZM28.5937 9.52073C28.5937 10.389 27.9433 10.8376 27.5644 10.9723C27.884 11.0807 28.1571 11.2722 28.2871 11.4309C28.4933 11.7018 28.5289 11.9437 28.5289 12.4301V13.4999H27.0553L27.0498 12.8131C27.0498 12.4854 27.085 12.0142 26.8193 11.7522C26.6058 11.5606 26.2804 11.5191 25.7544 11.5191H24.1862V13.5H22.7253V8.054H26.0853C26.8319 8.054 27.3821 8.07155 27.8543 8.31483C28.3165 8.55812 28.5937 8.91326 28.5937 9.52073ZM26.7471 10.3293C26.5462 10.438 26.3089 10.4416 26.0243 10.4416H24.2497V9.23194H26.0485C26.303 9.23194 26.5687 9.24211 26.7413 9.33015C26.9308 9.40951 27.0481 9.57833 27.0481 9.81158C27.0481 10.0497 26.9365 10.2412 26.7471 10.3293ZM30.9367 13.4999H29.4461V8.054H30.9367V13.4999ZM48.2407 13.4999H46.1705L43.4015 9.41242V13.4999H40.4263L39.8578 12.2852H36.8231L36.2717 13.4999H34.5618C33.8519 13.4999 32.9526 13.36 32.4436 12.8976C31.9302 12.4352 31.6631 11.8088 31.6631 10.8185C31.6631 10.0108 31.8227 9.27249 32.4505 8.689C32.9229 8.25438 33.6625 8.054 34.6692 8.054H36.0835V9.2209H34.6988C34.1657 9.2209 33.8645 9.29158 33.5747 9.54349C33.3257 9.77283 33.1548 10.2063 33.1548 10.7771C33.1548 11.3605 33.2849 11.7813 33.5563 12.056C33.7812 12.2715 34.1901 12.3369 34.5745 12.3369H35.2306L37.2895 8.05419H39.4785L41.952 13.2052V8.05425H44.1764L46.7443 11.847V8.05425H48.2407V13.4999ZM39.3607 11.1551L38.3497 8.984L37.3443 11.1551H39.3607ZM51.9633 22.196C51.6085 22.6583 50.9171 22.8928 49.9809 22.8928H47.1597V21.7247H49.9695C50.2482 21.7247 50.4432 21.692 50.5607 21.5898C50.6717 21.4985 50.7343 21.3695 50.7334 21.2346C50.7334 21.0759 50.6625 20.9499 50.5549 20.8744C50.4489 20.7912 50.2947 20.7535 50.0401 20.7535C48.6685 20.7119 46.9572 20.7912 46.9572 19.0674C46.9572 18.2774 47.5201 17.4458 49.0531 17.4458H51.9631V16.3621H49.2593C48.4435 16.3621 47.8507 16.5363 47.4309 16.8068V16.362H43.4319C42.7923 16.362 42.0417 16.5033 41.6867 16.8068V16.362H34.5453V16.8068C33.9771 16.4415 33.0181 16.362 32.5754 16.362H27.865V16.8068C27.4153 16.4189 26.4155 16.362 25.8059 16.362H20.5341L19.3279 17.5254L18.1979 16.362H10.3226V23.9626H18.0493L19.2923 22.7807L20.4633 23.9626L25.2261 23.9664V22.1784H25.6942C26.3261 22.1871 27.0715 22.1643 27.7291 21.9111V23.9623H31.6576V21.9813H31.8471C32.0889 21.9813 32.1127 21.9902 32.1127 22.2054V23.9621H44.0467C44.8043 23.9621 45.5963 23.7894 46.035 23.4757V23.9621H49.8203C50.608 23.9621 51.3773 23.8637 51.9626 23.6118L51.9627 22.1958L51.9633 22.196ZM28.3007 19.2724C28.3007 20.7856 27.0337 21.098 25.7567 21.098H23.9339V22.9251H21.0945L19.2955 21.1217L17.4261 22.9251H11.6393V17.4778H17.5149L19.3123 19.2634L21.1707 17.4778H25.8387C26.998 17.4778 28.3007 17.7638 28.3007 19.2724ZM16.686 21.7793H13.0941V20.6956H16.3015V19.5841H13.0941V18.5938H16.7567L18.3547 20.1812L16.686 21.7793ZM22.4733 22.403L20.2304 20.1841L22.4733 18.0358V22.403ZM25.7905 19.9809H23.9026V18.5938H25.8074C26.3349 18.5938 26.701 18.7853 26.701 19.2616C26.701 19.7328 26.3518 19.9809 25.7905 19.9809ZM35.6811 17.4778H40.557V18.6044H37.136V19.5947H40.4735V20.7061H37.136V21.7899L40.5569 21.7948V22.9251H35.681L35.6811 17.4778ZM33.8065 20.3936C34.1317 20.5006 34.3975 20.6922 34.5221 20.8509C34.7285 21.1169 34.7583 21.3651 34.7642 21.8452V22.9251H33.2974V22.2436C33.2974 21.9158 33.3328 21.4306 33.0613 21.1773C32.8479 20.9822 32.5224 20.9356 31.9895 20.9356H30.4282V22.9251H28.9602V17.4779H32.3331C33.0727 17.4779 33.6113 17.507 34.0909 17.7349C34.5519 17.9832 34.8419 18.3231 34.8419 18.9446C34.8419 19.814 34.191 20.2576 33.8065 20.3936ZM32.9809 19.705C32.7854 19.8083 32.5438 19.8173 32.2597 19.8173H30.4849V18.5939H32.2837C32.5438 18.5939 32.8041 18.5988 32.9809 18.6923C33.1702 18.7805 33.2834 18.9493 33.2834 19.1823C33.2834 19.4153 33.1701 19.603 32.9809 19.705ZM46.1689 20.052C46.4535 20.3142 46.6058 20.6454 46.6058 21.206C46.6058 22.3778 45.7843 22.9248 44.3108 22.9248H41.4655V21.7567H44.2995C44.5766 21.7567 44.7731 21.7242 44.8961 21.6219C44.9967 21.5377 45.0687 21.4152 45.0687 21.2667C45.0687 21.1079 44.9907 20.982 44.8904 20.9064C44.7787 20.8233 44.6247 20.7856 44.3702 20.7856C43.004 20.744 41.2931 20.8233 41.2931 19.0997C41.2931 18.3095 41.8501 17.4779 43.3817 17.4779H46.3105V18.6373H43.6307C43.3651 18.6373 43.1923 18.6463 43.0454 18.7357C42.8854 18.8238 42.8261 18.9548 42.8261 19.1274C42.8261 19.3329 42.9619 19.4728 43.1457 19.5333C43.2998 19.581 43.4654 19.595 43.7141 19.595L44.5006 19.614C45.2936 19.6311 45.838 19.7533 46.1689 20.052ZM51.9659 18.5938H49.3033C49.0376 18.5938 48.8608 18.6027 48.7122 18.6921C48.5581 18.7804 48.4987 18.9113 48.4987 19.0841C48.4987 19.2896 48.6288 19.4293 48.8181 19.4898C48.9723 19.5376 49.1378 19.5516 49.3811 19.5516L50.1729 19.5704C50.9718 19.588 51.5051 19.7104 51.8303 20.0089C51.8897 20.0504 51.9251 20.0971 51.9658 20.1438V18.5938H51.9659Z" fill="white"/>
</svg>
