<svg width="52" height="31" viewBox="0 0 52 31" fill="none" xmlns="http://www.w3.org/2000/svg">
<path d="M49.92 0H2.08C0.931248 0 0 0.925278 0 2.06667V28.9333C0 30.0747 0.931248 31 2.08 31H49.92C51.0688 31 52 30.0747 52 28.9333V2.06667C52 0.925278 51.0688 0 49.92 0Z" fill="#F5F5F5"/>
<path d="M12.5391 30.9995H49.9193C51.0685 30.9995 51.9993 30.0762 51.9993 28.9354V17.4102C51.9993 17.4102 38.0633 26.798 12.5391 30.9995Z" fill="#E6772F"/>
<path fill-rule="evenodd" clip-rule="evenodd" d="M9.51017 15.4072C9.11965 15.7389 8.62253 15.8841 7.82797 15.8841H7.49829V11.9264H7.82797C8.62253 11.9264 9.10041 12.0613 9.51017 12.4095C9.93241 12.7696 10.1862 13.324 10.1862 13.8985C10.1862 14.4751 9.93241 15.0502 9.51017 15.4072ZM8.07393 10.9122H6.26953V16.8983H8.06353C9.01721 16.8983 9.70673 16.6823 10.3099 16.206C11.0275 15.6412 11.4529 14.7893 11.4529 13.9068C11.4529 12.1398 10.0645 10.9122 8.07393 10.9122ZM12.0192 10.9122H13.2427V16.8983H12.0192V10.9122ZM16.2468 13.2067C15.5084 12.9489 15.2926 12.7779 15.2926 12.4539C15.2926 12.0778 15.6784 11.7926 16.2088 11.7926C16.5765 11.7926 16.8796 11.9326 17.202 12.2746L17.8406 11.4779C17.3252 11.0428 16.6693 10.8068 15.993 10.813C14.8787 10.813 14.0295 11.5498 14.0295 12.5242C14.0295 13.3514 14.4242 13.7714 15.576 14.1698C16.058 14.3289 16.3024 14.4379 16.4262 14.5113C16.6716 14.6622 16.7938 14.8781 16.7938 15.1282C16.7938 15.6154 16.3882 15.9729 15.8396 15.9729C15.2557 15.9729 14.7835 15.695 14.5006 15.1731L13.7092 15.9016C14.2749 16.6901 14.953 17.0424 15.888 17.0424C17.162 17.0424 18.06 16.2313 18.06 15.076C18.06 14.1238 17.644 13.6919 16.2468 13.2067ZM18.4459 13.9068C18.4459 15.6671 19.8993 17.0311 21.7697 17.0311C22.2975 17.0311 22.7494 16.9319 23.3063 16.6823V15.3064C22.8144 15.7766 22.3823 15.9626 21.8238 15.9626C20.5877 15.9626 19.7121 15.1117 19.7121 13.8985C19.7121 12.7515 20.6158 11.8437 21.7697 11.8437C22.3521 11.8437 22.7972 12.0401 23.3063 12.517V11.1426C22.7686 10.8843 22.3271 10.7773 21.7952 10.7773C19.9351 10.7773 18.4459 12.1677 18.4459 13.9068ZM33.2534 14.9308L31.5743 10.9122H30.2358L32.9045 17.0492H33.5628L36.2834 10.9122H34.9553L33.2534 14.9308ZM36.8403 16.8983H40.3223V15.8841H38.0691V14.2679H40.2365V13.2542H38.0691V11.9264H40.3223V10.9122H36.8403V16.8983ZM42.72 13.665H42.3638V11.8546H42.7402C43.5073 11.8546 43.918 12.1605 43.918 12.7433C43.918 13.3426 43.5073 13.665 42.72 13.665ZM45.1822 12.6782C45.1822 11.5575 44.3736 10.9122 42.9566 10.9122H41.1329V16.8983H42.3638V14.4917H42.5234L44.2197 16.8983H45.7297L43.7491 14.3754C44.6747 14.1956 45.1822 13.5937 45.1822 12.6782Z" fill="#1A1919"/>
<path fill-rule="evenodd" clip-rule="evenodd" d="M30.4072 13.9214C30.4072 15.6445 28.9387 17.0416 27.1255 17.0416C25.3122 17.0416 23.8438 15.6445 23.8438 13.9214C23.8438 12.1978 25.3122 10.8008 27.125 10.8008C28.9387 10.8008 30.4072 12.1978 30.4072 13.9214Z" fill="#E6772F"/>
</svg>
