<svg width="52" height="31" viewBox="0 0 52 31" fill="none" xmlns="http://www.w3.org/2000/svg">
<rect width="52" height="31" rx="2" fill="#F5F5F5"/>
<path d="M28.9824 8.11328H21.1211V22.2387H28.9824V8.11328Z" fill="#FF5F00"/>
<path d="M21.6213 15.1758C21.6213 12.3058 22.969 9.76021 25.0404 8.11307C23.518 6.91515 21.5964 6.19141 19.5 6.19141C14.5337 6.19141 10.5156 10.2094 10.5156 15.1758C10.5156 20.1421 14.5337 24.1602 19.5 24.1602C21.5964 24.1602 23.518 23.4364 25.0404 22.2385C22.969 20.6163 21.6213 18.0458 21.6213 15.1758Z" fill="#EB001B"/>
<path d="M39.5912 15.1758C39.5912 20.1421 35.5732 24.1602 30.6068 24.1602C28.5104 24.1602 26.5888 23.4364 25.0664 22.2385C27.1628 20.5914 28.4855 18.0458 28.4855 15.1758C28.4855 12.3058 27.1378 9.76021 25.0664 8.11307C26.5888 6.91515 28.5104 6.19141 30.6068 6.19141C35.5732 6.19141 39.5912 10.2344 39.5912 15.1758Z" fill="#F79E1B"/>
</svg>
