<svg width="52" height="31" viewBox="0 0 52 31" fill="none" xmlns="http://www.w3.org/2000/svg">
<rect width="52" height="31" rx="2" fill="#F5F5F5"/>
<g clip-path="url(#clip0_535_1155)">
<path d="M33.3864 6.38694C32.3155 5.19199 30.3797 4.67969 27.9033 4.67969H20.7161C20.2094 4.67969 19.7789 5.04043 19.6996 5.52956L16.707 24.1109C16.6475 24.4772 16.9373 24.8092 17.3166 24.8092H21.7537L22.8681 17.8893L22.8336 18.106C22.9129 17.6169 23.3402 17.2561 23.8463 17.2561H25.9548C30.0969 17.2561 33.3403 15.609 34.2877 10.8442C34.3159 10.7033 34.3402 10.5662 34.3613 10.4321C34.2417 10.3701 34.2417 10.3701 34.3613 10.4321C34.6434 8.67101 34.3593 7.4723 33.3864 6.38694Z" fill="#003087"/>
<path d="M33.3864 6.38694C32.3155 5.19199 30.3797 4.67969 27.9033 4.67969H20.7161C20.2094 4.67969 19.7789 5.04043 19.6996 5.52956L16.707 24.1109C16.6475 24.4772 16.9373 24.8092 17.3166 24.8092H21.7537L22.8681 17.8893L22.8336 18.106C22.9129 17.6169 23.3402 17.2561 23.8463 17.2561H25.9548C30.0969 17.2561 33.3403 15.609 34.2877 10.8442C34.3159 10.7033 34.3402 10.5662 34.3613 10.4321C34.2417 10.3701 34.2417 10.3701 34.3613 10.4321C34.6434 8.67101 34.3593 7.4723 33.3864 6.38694Z" fill="#003087"/>
<path d="M24.0696 10.4553C24.1169 10.1609 24.3101 9.91983 24.5698 9.7977C24.6882 9.74259 24.82 9.7119 24.9582 9.7119H30.5928C31.26 9.7119 31.8825 9.75449 32.4512 9.84405C32.6143 9.8697 32.7723 9.89916 32.9259 9.93298C33.0794 9.96615 33.2284 10.0037 33.373 10.0451C33.4453 10.0657 33.5163 10.0871 33.586 10.1096C33.8656 10.201 34.126 10.3075 34.3652 10.4321C34.6473 8.67039 34.3632 7.4723 33.3903 6.38694C32.3188 5.19199 30.3836 4.67969 27.9073 4.67969H20.7194C20.2134 4.67969 19.7828 5.04043 19.7035 5.52956L16.7109 24.1102C16.6514 24.4772 16.9412 24.8085 17.3199 24.8085H21.7576L22.872 17.8887L24.0696 10.4553Z" fill="#002F86"/>
<path d="M34.3622 10.4316C34.3404 10.5663 34.3167 10.7028 34.2886 10.8437C33.3412 15.6079 30.0978 17.2557 25.9556 17.2557H23.8465C23.3404 17.2557 22.9131 17.6164 22.8344 18.1055L21.7546 24.808L21.4482 26.7095C21.3963 27.0301 21.6497 27.3207 21.981 27.3207H25.7215C26.1642 27.3207 26.541 27.0051 26.61 26.5773L26.6465 26.3907L27.3515 22.0167L27.3969 21.7749C27.466 21.3472 27.8428 21.0315 28.2855 21.0315H28.8453C32.4686 21.0315 35.3058 19.5905 36.1349 15.4225C36.481 13.6808 36.3018 12.2266 35.3864 11.2051C35.1088 10.8957 34.7639 10.6402 34.3622 10.4316Z" fill="#009CDE"/>
<path d="M33.3715 10.0441C33.2269 10.0028 33.0778 9.96521 32.9243 9.93202C32.7708 9.8988 32.6121 9.86939 32.4496 9.84371C31.8803 9.75353 31.2585 9.71094 30.5906 9.71094H24.9566C24.8178 9.71094 24.686 9.74165 24.5683 9.79737C24.3079 9.91949 24.1154 10.16 24.068 10.455L22.8705 17.8884L22.8359 18.1051C22.9146 17.6159 23.342 17.2552 23.848 17.2552H25.9571C30.0993 17.2552 33.3427 15.6081 34.2901 10.8433C34.3183 10.7023 34.3419 10.5658 34.3637 10.4312C34.1238 10.3072 33.8641 10.2001 33.5845 10.1093C33.5148 10.0867 33.4438 10.0648 33.3715 10.0441Z" fill="#012069"/>
</g>
<defs>
<clipPath id="clip0_535_1155">
<rect width="21" height="24" fill="white" transform="translate(16 4)"/>
</clipPath>
</defs>
</svg>
