<svg width="121" height="32" viewBox="0 0 121 32" fill="none" xmlns="http://www.w3.org/2000/svg">
<path d="M8.6451 8.72117C8.67797 8.65477 8.72874 8.59887 8.79169 8.55979C8.85464 8.52071 8.92726 8.5 9.00135 8.5C9.07544 8.5 9.14806 8.52071 9.21101 8.55979C9.27396 8.59887 9.32473 8.65477 9.3576 8.72117L11.0901 12.2304C11.2042 12.4614 11.3727 12.6612 11.5811 12.8128C11.7894 12.9643 12.0314 13.063 12.2863 13.1004L16.1609 13.6674C16.2343 13.6781 16.3032 13.709 16.36 13.7568C16.4167 13.8046 16.4589 13.8673 16.4819 13.9379C16.5048 14.0084 16.5076 14.084 16.4898 14.156C16.472 14.228 16.4345 14.2936 16.3814 14.3454L13.5794 17.0739C13.3946 17.254 13.2563 17.4763 13.1765 17.7216C13.0966 17.967 13.0776 18.2281 13.1211 18.4824L13.7826 22.3374C13.7956 22.4108 13.7876 22.4863 13.7597 22.5554C13.7318 22.6245 13.685 22.6844 13.6248 22.7282C13.5645 22.772 13.4931 22.7979 13.4187 22.8031C13.3444 22.8083 13.2701 22.7924 13.2043 22.7574L9.74085 20.9364C9.51264 20.8166 9.25873 20.754 9.00097 20.754C8.74322 20.754 8.48931 20.8166 8.2611 20.9364L4.79835 22.7574C4.7326 22.7922 4.6584 22.8079 4.58419 22.8026C4.50998 22.7973 4.43874 22.7713 4.37857 22.7276C4.3184 22.6838 4.27172 22.6241 4.24384 22.5551C4.21596 22.4861 4.20799 22.4107 4.22085 22.3374L4.8816 18.4832C4.92525 18.2287 4.90634 17.9675 4.8265 17.722C4.74667 17.4764 4.60831 17.254 4.42335 17.0739L1.62135 14.3462C1.5678 14.2944 1.52984 14.2287 1.51182 14.1565C1.4938 14.0842 1.49643 14.0084 1.51941 13.9376C1.54239 13.8667 1.5848 13.8038 1.64181 13.7559C1.69881 13.708 1.76813 13.6771 1.84185 13.6667L5.7156 13.1004C5.97079 13.0633 6.21314 12.9647 6.42179 12.8132C6.63043 12.6616 6.79913 12.4616 6.91335 12.2304L8.6451 8.72117Z" fill="#4A4F54" stroke="#4A4F54" stroke-width="1.5" stroke-linecap="round" stroke-linejoin="round"/>
<path d="M27.7288 23V22.2212C28.3109 22.2212 28.7279 22.1897 28.9796 22.1268C29.2313 22.0639 29.3887 21.9459 29.4516 21.7728C29.5303 21.584 29.5696 21.3008 29.5696 20.9232V8.25H28.4604C27.8468 8.25 27.3197 8.368 26.8792 8.604C26.4544 8.82427 26.1083 9.17827 25.8408 9.666C25.5891 10.1537 25.4081 10.7831 25.298 11.554H24.472L24.4956 7.424H38.2308V11.554H37.4284C37.2711 10.6887 37.0508 10.02 36.7676 9.548C36.5001 9.076 36.154 8.7456 35.7292 8.5568C35.3044 8.35227 34.7773 8.25 34.148 8.25H33.1568V20.9232C33.1568 21.3008 33.1961 21.584 33.2748 21.7728C33.3535 21.9459 33.5187 22.0639 33.7704 22.1268C34.0379 22.1897 34.4469 22.2212 34.9976 22.2212V23H27.7288ZM36.9185 23V22.2212C37.3748 22.2212 37.7052 22.1897 37.9097 22.1268C38.13 22.0639 38.2716 21.9537 38.3345 21.7964C38.3974 21.6233 38.4289 21.3716 38.4289 21.0412V14.0556C38.4289 13.7095 38.3817 13.4735 38.2873 13.3476C38.2086 13.2217 38.0277 13.1588 37.7445 13.1588H36.9657V12.38L40.6709 11.79H41.6857V13.9612H41.7801V21.0412C41.7801 21.3716 41.8194 21.6233 41.8981 21.7964C41.9925 21.9537 42.1656 22.0639 42.4173 22.1268C42.6848 22.1897 43.0781 22.2212 43.5973 22.2212V23H36.9185ZM41.3081 16.628V15.1176C41.371 14.9131 41.4733 14.6299 41.6149 14.268C41.7722 13.8904 41.9846 13.5049 42.2521 13.1116C42.5196 12.7183 42.85 12.38 43.2433 12.0968C43.6524 11.8136 44.1401 11.672 44.7065 11.672C45.3673 11.672 45.8786 11.8687 46.2405 12.262C46.6024 12.6396 46.7833 13.1273 46.7833 13.7252C46.7833 14.1972 46.6496 14.622 46.3821 14.9996C46.1304 15.3615 45.7056 15.5424 45.1077 15.5424C44.6357 15.5424 44.2502 15.4244 43.9513 15.1884C43.6681 14.9367 43.5265 14.5827 43.5265 14.1264C43.5265 13.8904 43.558 13.7095 43.6209 13.5836C43.6996 13.4577 43.7704 13.3633 43.8333 13.3004C43.912 13.2217 43.9513 13.1509 43.9513 13.088C43.9513 13.0408 43.9277 13.0015 43.8805 12.97C43.8333 12.9228 43.7625 12.8992 43.6681 12.8992C43.4793 12.8992 43.2748 13.0093 43.0545 13.2296C42.8343 13.4499 42.6297 13.7488 42.4409 14.1264C42.2521 14.504 42.0948 14.9131 41.9689 15.3536C41.843 15.7784 41.7801 16.1953 41.7801 16.6044L41.3081 16.628ZM50.972 23.2832C49.9179 23.2832 49.0919 22.9921 48.494 22.41C47.8962 21.8121 47.5972 20.8839 47.5972 19.6252V14.0084C47.5972 13.6465 47.55 13.4105 47.4556 13.3004C47.3612 13.1745 47.1724 13.1116 46.8892 13.1116H46.1104V12.3328L49.8864 11.79H50.9248V19.342C50.9248 19.9399 50.9878 20.4197 51.1136 20.7816C51.2552 21.1435 51.4598 21.4109 51.7272 21.584C51.9947 21.7413 52.3094 21.82 52.6712 21.82C52.9702 21.82 53.2455 21.7649 53.4972 21.6548C53.749 21.5289 54.0007 21.3637 54.2524 21.1592C54.5042 20.9389 54.7559 20.7029 55.0076 20.4512L55.102 21.23C54.8975 21.466 54.6143 21.7413 54.2524 22.056C53.8906 22.3707 53.4343 22.6539 52.8836 22.9056C52.3487 23.1573 51.7115 23.2832 50.972 23.2832ZM54.9132 23V21.4896H54.8188V14.0084C54.8188 13.6465 54.7716 13.4105 54.6772 13.3004C54.5986 13.1745 54.4176 13.1116 54.1344 13.1116H53.3556V12.3328L57.108 11.79H58.1464V21.3008C58.1464 21.5683 58.1779 21.7728 58.2408 21.9144C58.3195 22.0403 58.4611 22.1268 58.6656 22.174C58.8702 22.2055 59.177 22.2212 59.586 22.2212V23H54.9132ZM64.2905 23.2832C63.7083 23.2832 63.2442 23.2281 62.8981 23.118C62.5519 23.0236 62.2609 22.9292 62.0249 22.8348C61.7889 22.7404 61.5529 22.6932 61.3169 22.6932C61.1438 22.6932 61.0101 22.7247 60.9157 22.7876C60.8213 22.8505 60.7426 22.9292 60.6797 23.0236H60.1133L59.9009 19.1768H60.6561C60.8449 20.1837 61.2539 20.9783 61.8833 21.5604C62.5126 22.1425 63.2678 22.4336 64.1489 22.4336C64.7153 22.4336 65.203 22.2999 65.6121 22.0324C66.0369 21.7492 66.2493 21.3087 66.2493 20.7108C66.2493 20.3961 66.1863 20.1444 66.0605 19.9556C65.9346 19.7511 65.7301 19.5701 65.4469 19.4128C65.1637 19.2397 64.7939 19.0667 64.3377 18.8936L63.0633 18.5396C61.9619 18.1463 61.1753 17.69 60.7033 17.1708C60.2313 16.6516 59.9953 15.9987 59.9953 15.212C59.9953 14.1107 60.3729 13.2453 61.1281 12.616C61.899 11.9709 62.9374 11.6484 64.2433 11.6484C64.7625 11.6484 65.1715 11.6877 65.4705 11.7664C65.7851 11.8451 66.0447 11.9237 66.2493 12.0024C66.4695 12.0811 66.6741 12.1204 66.8629 12.1204C67.0517 12.1204 67.1775 12.0732 67.2405 11.9788C67.3034 11.8844 67.3506 11.79 67.3821 11.6956H67.9721L68.1373 15.1412H67.4529C67.2955 14.5905 67.0753 14.1185 66.7921 13.7252C66.5089 13.3161 66.1706 13.0093 65.7773 12.8048C65.3997 12.5845 64.9591 12.4744 64.4557 12.4744C63.8735 12.4744 63.4094 12.6081 63.0633 12.8756C62.7171 13.1431 62.5441 13.4892 62.5441 13.914C62.5441 14.2287 62.6385 14.4961 62.8273 14.7164C63.0318 14.9209 63.2757 15.094 63.5589 15.2356C63.8578 15.3615 64.1489 15.4795 64.4321 15.5896L65.5177 15.92C66.2729 16.156 66.8865 16.4392 67.3585 16.7696C67.8462 17.0843 68.2081 17.4619 68.4441 17.9024C68.6801 18.3272 68.7981 18.8385 68.7981 19.4364C68.7981 20.1759 68.6171 20.8367 68.2553 21.4188C67.9091 22.0009 67.3978 22.4572 66.7213 22.7876C66.0605 23.118 65.2502 23.2832 64.2905 23.2832ZM73.1031 23.2832C72.4581 23.2832 71.8995 23.1731 71.4275 22.9528C70.9555 22.7168 70.5937 22.3471 70.3419 21.8436C70.1059 21.3244 69.9879 20.6479 69.9879 19.814V12.7576H68.5719V11.9788C69.2013 11.8529 69.7834 11.5933 70.3183 11.2C70.8533 10.7909 71.3095 10.2875 71.6871 9.6896C72.0805 9.076 72.3715 8.42307 72.5603 7.7308H73.3391V11.908H75.6519V12.7576H73.3391V19.6724C73.3391 20.3961 73.4335 20.9468 73.6223 21.3244C73.8269 21.6863 74.1809 21.8672 74.6843 21.8672C74.9675 21.8672 75.2271 21.8121 75.4631 21.702C75.7149 21.5761 75.8879 21.4817 75.9823 21.4188L76.3835 22.0796C76.179 22.2212 75.9351 22.3864 75.6519 22.5752C75.3687 22.764 75.0226 22.9292 74.6135 23.0708C74.2045 23.2124 73.701 23.2832 73.1031 23.2832ZM75.653 27.72V26.9412C76.1092 26.9412 76.4396 26.9097 76.6442 26.8468C76.8644 26.7996 77.006 26.6895 77.069 26.5164C77.1319 26.3591 77.1634 26.1073 77.1634 25.7612V13.9612C77.1634 13.6308 77.1162 13.4184 77.0218 13.324C76.9274 13.2139 76.7071 13.1588 76.361 13.1588H75.6766V12.3564L79.3818 11.79H80.3966V13.0408H80.491V25.7612C80.491 26.0916 80.5224 26.3355 80.5854 26.4928C80.664 26.6659 80.8056 26.7839 81.0102 26.8468C81.2304 26.9097 81.5687 26.9412 82.025 26.9412V27.72H75.653ZM82.6386 23.2832C82.2138 23.2832 81.8283 23.2439 81.4822 23.1652C81.136 23.1023 80.7978 23.0079 80.4674 22.882C80.1527 22.7561 79.8302 22.6145 79.4998 22.4572V20.0972C79.6571 20.3175 79.8302 20.5692 80.019 20.8524C80.2078 21.1199 80.4202 21.3716 80.6562 21.6076C80.8922 21.8436 81.1518 22.0403 81.435 22.1976C81.7339 22.3549 82.0643 22.4336 82.4262 22.4336C83.2915 22.4336 83.9208 22.056 84.3142 21.3008C84.7075 20.5299 84.9042 19.2948 84.9042 17.5956C84.9042 16.1324 84.7075 14.9996 84.3142 14.1972C83.9366 13.3791 83.3387 12.97 82.5206 12.97C82.1272 12.97 81.7732 13.0723 81.4586 13.2768C81.1439 13.4656 80.8764 13.678 80.6562 13.914C80.4359 14.15 80.2707 14.3309 80.1606 14.4568V13.3004C80.4595 12.97 80.782 12.6868 81.1282 12.4508C81.49 12.1991 81.8991 12.0024 82.3554 11.8608C82.8116 11.7192 83.323 11.6484 83.8894 11.6484C85.3054 11.6484 86.4146 12.1125 87.217 13.0408C88.0194 13.9691 88.4206 15.3379 88.4206 17.1472C88.4206 18.4845 88.1924 19.6095 87.7362 20.522C87.2799 21.4188 86.6191 22.1032 85.7538 22.5752C84.8884 23.0472 83.85 23.2832 82.6386 23.2832ZM88.6043 23V22.2212C89.0606 22.2212 89.391 22.1897 89.5955 22.1268C89.8158 22.0639 89.9574 21.9537 90.0203 21.7964C90.0832 21.6233 90.1147 21.3716 90.1147 21.0412V14.0556C90.1147 13.6937 90.0675 13.4577 89.9731 13.3476C89.8944 13.2217 89.7214 13.1588 89.4539 13.1588H88.6751V12.38L92.4275 11.79H93.4659V21.0412C93.4659 21.3716 93.4974 21.6233 93.5603 21.7964C93.6232 21.9537 93.7491 22.0639 93.9379 22.1268C94.1424 22.1897 94.4414 22.2212 94.8347 22.2212V23H88.6043ZM91.6959 10.4684C91.1767 10.4684 90.7204 10.2875 90.3271 9.9256C89.9495 9.56373 89.7607 9.1232 89.7607 8.604C89.7607 8.06907 89.9495 7.62067 90.3271 7.2588C90.7204 6.89693 91.1767 6.716 91.6959 6.716C92.0578 6.716 92.3803 6.80253 92.6635 6.9756C92.9624 7.14867 93.1984 7.3768 93.3715 7.66C93.5446 7.9432 93.6311 8.25787 93.6311 8.604C93.6311 9.1232 93.4344 9.56373 93.0411 9.9256C92.6635 10.2875 92.2151 10.4684 91.6959 10.4684ZM94.7787 23V22.2212C95.2193 22.2212 95.5497 22.1897 95.7699 22.1268C95.9902 22.0639 96.1318 21.9537 96.1947 21.7964C96.2577 21.6233 96.2891 21.3716 96.2891 21.0412V9.0052C96.2891 8.64333 96.2419 8.39947 96.1475 8.2736C96.0689 8.14773 95.8879 8.0848 95.6047 8.0848H94.8259V7.306L98.6255 6.716H99.6403V21.0412C99.6403 21.3716 99.6718 21.6233 99.7347 21.7964C99.7977 21.9537 99.9235 22.0639 100.112 22.1268C100.317 22.1897 100.616 22.2212 101.009 22.2212V23H94.7787ZM106.813 23.2596C104.831 23.2596 103.36 22.7876 102.4 21.8436C101.44 20.8996 100.96 19.4443 100.96 17.4776C100.96 15.4952 101.448 14.0241 102.424 13.0644C103.399 12.1047 104.878 11.6248 106.86 11.6248C108.827 11.6248 110.282 12.0968 111.226 13.0408C112.186 13.9848 112.666 15.448 112.666 17.4304C112.666 19.4128 112.186 20.8839 111.226 21.8436C110.282 22.7876 108.811 23.2596 106.813 23.2596ZM106.837 22.4336C107.671 22.4336 108.269 22.0245 108.63 21.2064C108.992 20.3883 109.157 19.1296 109.126 17.4304C109.11 15.7155 108.921 14.4647 108.56 13.678C108.213 12.8756 107.623 12.4744 106.79 12.4744C105.956 12.4744 105.358 12.8992 104.996 13.7488C104.65 14.5984 104.477 15.8492 104.477 17.5012C104.477 19.2161 104.658 20.4669 105.02 21.2536C105.381 22.0403 105.987 22.4336 106.837 22.4336ZM117.069 23.2832C116.424 23.2832 115.865 23.1731 115.393 22.9528C114.921 22.7168 114.559 22.3471 114.308 21.8436C114.072 21.3244 113.954 20.6479 113.954 19.814V12.7576H112.538V11.9788C113.167 11.8529 113.749 11.5933 114.284 11.2C114.819 10.7909 115.275 10.2875 115.653 9.6896C116.046 9.076 116.337 8.42307 116.526 7.7308H117.305V11.908H119.618V12.7576H117.305V19.6724C117.305 20.3961 117.399 20.9468 117.588 21.3244C117.792 21.6863 118.146 21.8672 118.65 21.8672C118.933 21.8672 119.193 21.8121 119.429 21.702C119.68 21.5761 119.854 21.4817 119.948 21.4188L120.349 22.0796C120.145 22.2212 119.901 22.3864 119.618 22.5752C119.334 22.764 118.988 22.9292 118.579 23.0708C118.17 23.2124 117.667 23.2832 117.069 23.2832Z" fill="#4A4F54"/>
</svg>
