<svg width="128" height="36" viewBox="0 0 128 36" fill="none" xmlns="http://www.w3.org/2000/svg">
<path d="M0.888 23V22.208C1.416 22.208 1.8 22.176 2.04 22.112C2.296 22.032 2.456 21.896 2.52 21.704C2.6 21.496 2.64 21.216 2.64 20.864V9.344C2.64 8.928 2.6 8.624 2.52 8.432C2.456 8.224 2.296 8.096 2.04 8.048C1.8 7.984 1.416 7.952 0.888 7.952V7.16H8.352C9.568 7.16 10.608 7.288 11.472 7.544C12.352 7.784 13.024 8.176 13.488 8.72C13.952 9.248 14.184 9.944 14.184 10.808C14.184 11.784 13.88 12.576 13.272 13.184C12.68 13.776 11.816 14.192 10.68 14.432V14.456C11.592 14.616 12.36 14.88 12.984 15.248C13.608 15.616 14.072 16.088 14.376 16.664C14.696 17.24 14.856 17.936 14.856 18.752C14.856 19.744 14.616 20.552 14.136 21.176C13.656 21.8 12.952 22.264 12.024 22.568C11.096 22.856 9.96 23 8.616 23H0.888ZM7.968 22.088C8.656 22.088 9.224 21.968 9.672 21.728C10.136 21.472 10.48 21.096 10.704 20.6C10.928 20.104 11.04 19.496 11.04 18.776C11.04 17.592 10.736 16.672 10.128 16.016C9.52 15.36 8.656 15.032 7.536 15.032H6.288V20.528C6.288 21.104 6.408 21.512 6.648 21.752C6.888 21.976 7.328 22.088 7.968 22.088ZM6.288 14.096H7.488C8.528 14.096 9.312 13.832 9.84 13.304C10.368 12.776 10.632 12.016 10.632 11.024C10.632 10.368 10.52 9.824 10.296 9.392C10.072 8.96 9.728 8.632 9.264 8.408C8.8 8.184 8.216 8.072 7.512 8.072C7.176 8.072 6.92 8.096 6.744 8.144C6.568 8.192 6.448 8.288 6.384 8.432C6.32 8.576 6.288 8.776 6.288 9.032V14.096ZM15.2974 23V22.208C15.8254 22.208 16.2094 22.176 16.4494 22.112C16.7054 22.032 16.8654 21.896 16.9294 21.704C17.0094 21.496 17.0494 21.216 17.0494 20.864V9.344C17.0494 8.928 17.0094 8.624 16.9294 8.432C16.8654 8.224 16.7054 8.096 16.4494 8.048C16.2094 7.984 15.8254 7.952 15.2974 7.952V7.16H22.7614C23.9774 7.16 25.0174 7.288 25.8814 7.544C26.7614 7.784 27.4334 8.176 27.8974 8.72C28.3614 9.248 28.5934 9.944 28.5934 10.808C28.5934 11.784 28.2894 12.576 27.6814 13.184C27.0894 13.776 26.2254 14.192 25.0894 14.432V14.456C26.0014 14.616 26.7694 14.88 27.3934 15.248C28.0174 15.616 28.4814 16.088 28.7854 16.664C29.1054 17.24 29.2654 17.936 29.2654 18.752C29.2654 19.744 29.0254 20.552 28.5454 21.176C28.0654 21.8 27.3614 22.264 26.4334 22.568C25.5054 22.856 24.3694 23 23.0254 23H15.2974ZM22.3774 22.088C23.0654 22.088 23.6334 21.968 24.0814 21.728C24.5454 21.472 24.8894 21.096 25.1134 20.6C25.3374 20.104 25.4494 19.496 25.4494 18.776C25.4494 17.592 25.1454 16.672 24.5374 16.016C23.9294 15.36 23.0654 15.032 21.9454 15.032H20.6974V20.528C20.6974 21.104 20.8174 21.512 21.0574 21.752C21.2974 21.976 21.7374 22.088 22.3774 22.088ZM20.6974 14.096H21.8974C22.9374 14.096 23.7214 13.832 24.2494 13.304C24.7774 12.776 25.0414 12.016 25.0414 11.024C25.0414 10.368 24.9294 9.824 24.7054 9.392C24.4814 8.96 24.1374 8.632 23.6734 8.408C23.2094 8.184 22.6254 8.072 21.9214 8.072C21.5854 8.072 21.3294 8.096 21.1534 8.144C20.9774 8.192 20.8574 8.288 20.7934 8.432C20.7294 8.576 20.6974 8.776 20.6974 9.032V14.096ZM29.7068 23V22.208C30.2348 22.208 30.6188 22.176 30.8588 22.112C31.1148 22.032 31.2748 21.896 31.3388 21.704C31.4188 21.496 31.4588 21.216 31.4588 20.864V9.344C31.4588 8.928 31.4188 8.624 31.3388 8.432C31.2748 8.224 31.1148 8.096 30.8588 8.048C30.6188 7.984 30.2348 7.952 29.7068 7.952V7.16H37.1708C38.3868 7.16 39.4268 7.288 40.2908 7.544C41.1708 7.784 41.8428 8.176 42.3068 8.72C42.7708 9.248 43.0028 9.944 43.0028 10.808C43.0028 11.784 42.6988 12.576 42.0908 13.184C41.4988 13.776 40.6348 14.192 39.4988 14.432V14.456C40.4108 14.616 41.1788 14.88 41.8028 15.248C42.4268 15.616 42.8908 16.088 43.1948 16.664C43.5148 17.24 43.6748 17.936 43.6748 18.752C43.6748 19.744 43.4348 20.552 42.9548 21.176C42.4748 21.8 41.7708 22.264 40.8428 22.568C39.9148 22.856 38.7788 23 37.4348 23H29.7068ZM36.7868 22.088C37.4748 22.088 38.0428 21.968 38.4908 21.728C38.9548 21.472 39.2988 21.096 39.5228 20.6C39.7468 20.104 39.8588 19.496 39.8588 18.776C39.8588 17.592 39.5548 16.672 38.9468 16.016C38.3388 15.36 37.4748 15.032 36.3548 15.032H35.1068V20.528C35.1068 21.104 35.2268 21.512 35.4668 21.752C35.7068 21.976 36.1468 22.088 36.7868 22.088ZM35.1068 14.096H36.3068C37.3468 14.096 38.1308 13.832 38.6588 13.304C39.1868 12.776 39.4508 12.016 39.4508 11.024C39.4508 10.368 39.3388 9.824 39.1148 9.392C38.8908 8.96 38.5468 8.632 38.0828 8.408C37.6188 8.184 37.0348 8.072 36.3308 8.072C35.9948 8.072 35.7388 8.096 35.5628 8.144C35.3868 8.192 35.2668 8.288 35.2028 8.432C35.1388 8.576 35.1068 8.776 35.1068 9.032V14.096Z" fill="#4A4F54"/>
<path opacity="0.6" d="M52.2368 23L51.4458 20.9609H48.8706L48.084 23H47.3281L49.8418 16.5488H50.5142L53.0103 23H52.2368ZM51.2217 20.2974L50.4702 18.2715C50.4526 18.2188 50.4233 18.1323 50.3823 18.0122C50.3442 17.8921 50.3047 17.7676 50.2637 17.6387C50.2227 17.5098 50.189 17.4058 50.1626 17.3267C50.1333 17.4468 50.1011 17.5669 50.0659 17.687C50.0337 17.8042 50.0015 17.9141 49.9692 18.0166C49.937 18.1162 49.9092 18.2012 49.8857 18.2715L49.1211 20.2974H51.2217ZM59.3489 17.1421C58.9944 17.1421 58.6751 17.2036 58.3909 17.3267C58.1097 17.4468 57.8694 17.6226 57.6702 17.854C57.4739 18.0825 57.323 18.3594 57.2176 18.6846C57.1121 19.0098 57.0594 19.376 57.0594 19.7832C57.0594 20.3223 57.1429 20.791 57.3099 21.1895C57.4798 21.585 57.7317 21.8911 58.0657 22.1079C58.4026 22.3247 58.823 22.4331 59.327 22.4331C59.6141 22.4331 59.8836 22.4097 60.1355 22.3628C60.3904 22.313 60.638 22.2515 60.8782 22.1782V22.8286C60.6438 22.9165 60.3978 22.981 60.1399 23.022C59.8821 23.0659 59.576 23.0879 59.2215 23.0879C58.5682 23.0879 58.0218 22.9531 57.5823 22.6836C57.1458 22.4111 56.8177 22.0273 56.5979 21.5322C56.3812 21.0371 56.2728 20.4526 56.2728 19.7788C56.2728 19.2925 56.3401 18.8486 56.4749 18.4473C56.6126 18.043 56.8118 17.6943 57.0726 17.4014C57.3362 17.1084 57.6585 16.8828 58.0394 16.7246C58.4231 16.5635 58.8626 16.4829 59.3577 16.4829C59.6829 16.4829 59.9964 16.5151 60.2981 16.5796C60.5999 16.644 60.8724 16.7363 61.1155 16.8564L60.8167 17.4893C60.6116 17.3955 60.386 17.3149 60.1399 17.2476C59.8968 17.1772 59.6331 17.1421 59.3489 17.1421ZM67.7179 17.1421C67.3634 17.1421 67.044 17.2036 66.7599 17.3267C66.4786 17.4468 66.2384 17.6226 66.0392 17.854C65.8429 18.0825 65.692 18.3594 65.5865 18.6846C65.4811 19.0098 65.4283 19.376 65.4283 19.7832C65.4283 20.3223 65.5118 20.791 65.6788 21.1895C65.8487 21.585 66.1007 21.8911 66.4347 22.1079C66.7716 22.3247 67.192 22.4331 67.6959 22.4331C67.983 22.4331 68.2525 22.4097 68.5045 22.3628C68.7594 22.313 69.0069 22.2515 69.2472 22.1782V22.8286C69.0128 22.9165 68.7667 22.981 68.5089 23.022C68.2511 23.0659 67.9449 23.0879 67.5904 23.0879C66.9371 23.0879 66.3907 22.9531 65.9513 22.6836C65.5147 22.4111 65.1866 22.0273 64.9669 21.5322C64.7501 21.0371 64.6417 20.4526 64.6417 19.7788C64.6417 19.2925 64.7091 18.8486 64.8438 18.4473C64.9815 18.043 65.1808 17.6943 65.4415 17.4014C65.7052 17.1084 66.0274 16.8828 66.4083 16.7246C66.7921 16.5635 67.2315 16.4829 67.7267 16.4829C68.0519 16.4829 68.3653 16.5151 68.6671 16.5796C68.9688 16.644 69.2413 16.7363 69.4845 16.8564L69.1856 17.4893C68.9806 17.3955 68.755 17.3149 68.5089 17.2476C68.2657 17.1772 68.0021 17.1421 67.7179 17.1421ZM75.0761 16.5752C75.6034 16.5752 76.0385 16.6411 76.3813 16.7729C76.727 16.9019 76.9848 17.0996 77.1547 17.3662C77.3246 17.6328 77.4096 17.9727 77.4096 18.3857C77.4096 18.7256 77.348 19.0098 77.225 19.2383C77.102 19.4639 76.9408 19.647 76.7416 19.7876C76.5424 19.9282 76.33 20.0366 76.1044 20.1128L77.8666 23H76.9965L75.4232 20.3193H74.0873V23H73.3402V16.5752H75.0761ZM75.0321 17.2212H74.0873V19.6865H75.1068C75.6313 19.6865 76.0165 19.5796 76.2626 19.3657C76.5116 19.1519 76.6361 18.8369 76.6361 18.4209C76.6361 17.9844 76.5043 17.6753 76.2406 17.4937C75.9799 17.312 75.5771 17.2212 75.0321 17.2212ZM85.1721 23H81.5949V16.5752H85.1721V17.2344H82.342V19.313H85.0095V19.9634H82.342V22.3408H85.1721V23ZM94.3979 19.7261C94.3979 20.4497 94.2661 21.0547 94.0024 21.541C93.7388 22.0244 93.3564 22.3892 92.8555 22.6353C92.3574 22.8784 91.7524 23 91.0405 23H89.2959V16.5752H91.2339C91.8872 16.5752 92.4497 16.6953 92.9214 16.9355C93.3931 17.1729 93.7563 17.5259 94.0112 17.9946C94.269 18.4604 94.3979 19.0376 94.3979 19.7261ZM93.6113 19.7524C93.6113 19.1753 93.5146 18.6992 93.3213 18.3242C93.1309 17.9492 92.8496 17.6709 92.4775 17.4893C92.1084 17.3047 91.6558 17.2124 91.1196 17.2124H90.043V22.3584H90.9526C91.8374 22.3584 92.501 22.1401 92.9434 21.7036C93.3887 21.2671 93.6113 20.6167 93.6113 19.7524ZM98.5262 23V16.5752H99.2732V23H98.5262ZM105.713 23H104.962V17.2344H102.94V16.5752H107.726V17.2344H105.713V23ZM114.974 23H111.397V16.5752H114.974V17.2344H112.144V19.313H114.811V19.9634H112.144V22.3408H114.974V23ZM124.2 19.7261C124.2 20.4497 124.068 21.0547 123.804 21.541C123.541 22.0244 123.158 22.3892 122.657 22.6353C122.159 22.8784 121.554 23 120.842 23H119.098V16.5752H121.036C121.689 16.5752 122.252 16.6953 122.723 16.9355C123.195 17.1729 123.558 17.5259 123.813 17.9946C124.071 18.4604 124.2 19.0376 124.2 19.7261ZM123.413 19.7524C123.413 19.1753 123.317 18.6992 123.123 18.3242C122.933 17.9492 122.652 17.6709 122.279 17.4893C121.91 17.3047 121.458 17.2124 120.922 17.2124H119.845V22.3584H120.755C121.639 22.3584 122.303 22.1401 122.745 21.7036C123.191 21.2671 123.413 20.6167 123.413 19.7524Z" fill="#4A4F54"/>
</svg>
