<svg width="126" height="36" viewBox="0 0 126 36" fill="none" xmlns="http://www.w3.org/2000/svg">
<path d="M9 23.288C7.352 23.288 5.92 22.984 4.704 22.376C3.504 21.768 2.576 20.872 1.92 19.688C1.264 18.488 0.936 17.016 0.936 15.272C0.936 13.512 1.264 12.008 1.92 10.76C2.592 9.512 3.544 8.552 4.776 7.88C6.008 7.208 7.464 6.872 9.144 6.872C10.056 6.872 10.776 6.944 11.304 7.088C11.832 7.232 12.248 7.384 12.552 7.544C12.872 7.688 13.152 7.76 13.392 7.76C13.536 7.76 13.664 7.728 13.776 7.664C13.888 7.6 13.96 7.512 13.992 7.4L14.088 7.16H14.808L14.976 11.72H14.208C14.096 11.176 13.92 10.664 13.68 10.184C13.456 9.688 13.152 9.264 12.768 8.912C12.4 8.544 11.96 8.256 11.448 8.048C10.936 7.84 10.36 7.736 9.72 7.736C8.872 7.736 8.16 7.904 7.584 8.24C7.008 8.576 6.536 9.024 6.168 9.584C5.816 10.144 5.544 10.752 5.352 11.408C5.16 12.064 5.032 12.72 4.968 13.376C4.904 14.032 4.872 14.616 4.872 15.128C4.872 16.152 4.968 17.104 5.16 17.984C5.352 18.864 5.64 19.64 6.024 20.312C6.424 20.968 6.928 21.488 7.536 21.872C8.16 22.24 8.888 22.424 9.72 22.424C10.04 22.424 10.32 22.4 10.56 22.352C10.816 22.288 11.048 22.224 11.256 22.16C11.464 22.08 11.648 22 11.808 21.92V17.984C11.808 17.392 11.72 17.016 11.544 16.856C11.368 16.68 11.016 16.592 10.488 16.592H10.08V15.824H16.848V16.592H16.416C16.064 16.592 15.8 16.688 15.624 16.88C15.464 17.056 15.384 17.424 15.384 17.984V23H14.664C14.584 22.824 14.48 22.688 14.352 22.592C14.224 22.496 14.032 22.448 13.776 22.448C13.616 22.448 13.408 22.496 13.152 22.592C12.896 22.672 12.576 22.768 12.192 22.88C11.824 22.976 11.376 23.064 10.848 23.144C10.336 23.24 9.72 23.288 9 23.288ZM23.3951 23.264C21.3791 23.264 19.8831 22.784 18.9071 21.824C17.9311 20.864 17.4431 19.384 17.4431 17.384C17.4431 15.368 17.9391 13.872 18.9311 12.896C19.9231 11.92 21.4271 11.432 23.4431 11.432C25.4431 11.432 26.9231 11.912 27.8831 12.872C28.8591 13.832 29.3471 15.32 29.3471 17.336C29.3471 19.352 28.8591 20.848 27.8831 21.824C26.9231 22.784 25.4271 23.264 23.3951 23.264ZM23.4191 22.424C24.2671 22.424 24.8751 22.008 25.2431 21.176C25.6111 20.344 25.7791 19.064 25.7471 17.336C25.7311 15.592 25.5391 14.32 25.1711 13.52C24.8191 12.704 24.2191 12.296 23.3711 12.296C22.5231 12.296 21.9151 12.728 21.5471 13.592C21.1951 14.456 21.0191 15.728 21.0191 17.408C21.0191 19.152 21.2031 20.424 21.5711 21.224C21.9391 22.024 22.5551 22.424 23.4191 22.424ZM36.3889 23.264C34.3729 23.264 32.8769 22.784 31.9009 21.824C30.9249 20.864 30.4369 19.384 30.4369 17.384C30.4369 15.368 30.9329 13.872 31.9249 12.896C32.9169 11.92 34.4209 11.432 36.4369 11.432C38.4369 11.432 39.9169 11.912 40.8769 12.872C41.8529 13.832 42.3409 15.32 42.3409 17.336C42.3409 19.352 41.8529 20.848 40.8769 21.824C39.9169 22.784 38.4209 23.264 36.3889 23.264ZM36.4129 22.424C37.2609 22.424 37.8689 22.008 38.2369 21.176C38.6049 20.344 38.7729 19.064 38.7409 17.336C38.7249 15.592 38.5329 14.32 38.1649 13.52C37.8129 12.704 37.2129 12.296 36.3649 12.296C35.5169 12.296 34.9089 12.728 34.5409 13.592C34.1889 14.456 34.0129 15.728 34.0129 17.408C34.0129 19.152 34.1969 20.424 34.5649 21.224C34.9329 22.024 35.5489 22.424 36.4129 22.424ZM47.8099 28.088C46.8019 28.088 45.9059 27.984 45.1219 27.776C44.3379 27.584 43.7219 27.272 43.2739 26.84C42.8419 26.424 42.6259 25.896 42.6259 25.256C42.6259 24.584 42.8819 24.008 43.3939 23.528C43.9059 23.064 44.7219 22.704 45.8419 22.448L47.8339 22.616C47.1459 22.68 46.6019 22.832 46.2019 23.072C45.8019 23.328 45.5139 23.624 45.3379 23.96C45.1779 24.312 45.0979 24.672 45.0979 25.04C45.0979 25.712 45.3619 26.256 45.8899 26.672C46.4339 27.104 47.2579 27.32 48.3619 27.32C49.0339 27.32 49.6339 27.232 50.1619 27.056C50.7059 26.896 51.1299 26.648 51.4339 26.312C51.7379 25.976 51.8899 25.552 51.8899 25.04C51.8899 24.368 51.6019 23.896 51.0259 23.624C50.4659 23.352 49.6179 23.216 48.4819 23.216H46.0579C45.6579 23.216 45.2659 23.12 44.8819 22.928C44.5139 22.72 44.2179 22.448 43.9939 22.112C43.7699 21.776 43.6579 21.4 43.6579 20.984C43.6579 20.28 43.9699 19.688 44.5939 19.208C45.2179 18.712 46.0179 18.328 46.9939 18.056L47.4979 18.464C47.3379 18.496 47.1539 18.552 46.9459 18.632C46.7539 18.712 46.5539 18.808 46.3459 18.92C46.1539 19.016 45.9939 19.136 45.8659 19.28C45.7379 19.408 45.6739 19.544 45.6739 19.688C45.6739 19.848 45.7779 20.008 45.9859 20.168C46.2099 20.328 46.6339 20.408 47.2579 20.408H49.7299C51.2019 20.408 52.2899 20.712 52.9939 21.32C53.6979 21.912 54.0499 22.76 54.0499 23.864C54.0499 24.808 53.7939 25.592 53.2819 26.216C52.7859 26.84 52.0739 27.304 51.1459 27.608C50.2179 27.928 49.1059 28.088 47.8099 28.088ZM48.0019 19.016C47.0579 19.016 46.2099 18.888 45.4579 18.632C44.7059 18.36 44.1059 17.952 43.6579 17.408C43.2259 16.864 43.0099 16.168 43.0099 15.32C43.0099 14.648 43.1379 14.072 43.3939 13.592C43.6659 13.112 44.0339 12.72 44.4979 12.416C44.9779 12.096 45.5219 11.864 46.1299 11.72C46.7379 11.56 47.3779 11.48 48.0499 11.48C48.9939 11.48 49.8419 11.624 50.5939 11.912C51.3619 12.184 51.9699 12.6 52.4179 13.16C52.8659 13.72 53.0899 14.432 53.0899 15.296C53.0899 16.16 52.8579 16.872 52.3939 17.432C51.9299 17.976 51.3139 18.376 50.5459 18.632C49.7779 18.888 48.9299 19.016 48.0019 19.016ZM48.0499 18.248C48.6099 18.248 49.0259 18.016 49.2979 17.552C49.5859 17.088 49.7299 16.288 49.7299 15.152C49.7299 14.464 49.6739 13.904 49.5619 13.472C49.4659 13.04 49.2979 12.728 49.0579 12.536C48.8339 12.344 48.5219 12.248 48.1219 12.248C47.4979 12.248 47.0659 12.48 46.8259 12.944C46.5859 13.408 46.4659 14.192 46.4659 15.296C46.4659 16.352 46.5779 17.112 46.8019 17.576C47.0419 18.024 47.4579 18.248 48.0499 18.248ZM54.4579 13.976C54.1539 13.976 53.9219 13.904 53.7619 13.76C53.6019 13.616 53.5219 13.44 53.5219 13.232C53.5219 13.088 53.5379 12.976 53.5699 12.896C53.6019 12.816 53.6179 12.744 53.6179 12.68C53.6179 12.632 53.5859 12.584 53.5219 12.536C53.4579 12.472 53.3539 12.44 53.2099 12.44C53.0499 12.44 52.8579 12.504 52.6339 12.632C52.4259 12.744 52.2259 13 52.0339 13.4L51.5539 12.752C51.8099 12.288 52.1299 11.96 52.5139 11.768C52.9139 11.56 53.3379 11.456 53.7859 11.456C54.3299 11.456 54.7539 11.584 55.0579 11.84C55.3619 12.08 55.5139 12.416 55.5139 12.848C55.5139 13.168 55.4259 13.44 55.2499 13.664C55.0899 13.872 54.8259 13.976 54.4579 13.976ZM55.1754 23V22.208C55.6234 22.208 55.9594 22.176 56.1834 22.112C56.4074 22.048 56.5514 21.936 56.6154 21.776C56.6794 21.6 56.7114 21.344 56.7114 21.008V8.768C56.7114 8.4 56.6634 8.152 56.5674 8.024C56.4874 7.896 56.3034 7.832 56.0154 7.832H55.2234V7.04L59.0874 6.44H60.1194V21.008C60.1194 21.344 60.1514 21.6 60.2154 21.776C60.2794 21.936 60.4074 22.048 60.5994 22.112C60.8074 22.176 61.1114 22.208 61.5114 22.208V23H55.1754ZM67.5062 23.264C65.7462 23.264 64.4022 22.776 63.4742 21.8C62.5622 20.808 62.1062 19.336 62.1062 17.384C62.1062 16.056 62.3142 14.952 62.7302 14.072C63.1622 13.192 63.7782 12.536 64.5782 12.104C65.3942 11.672 66.3942 11.456 67.5782 11.456C68.5062 11.456 69.3062 11.592 69.9782 11.864C70.6502 12.12 71.1942 12.504 71.6102 13.016C72.0422 13.512 72.3542 14.112 72.5462 14.816C72.7542 15.52 72.8582 16.328 72.8582 17.24V17.456H64.1462V16.592H69.2822C69.2822 15.616 69.2342 14.816 69.1382 14.192C69.0582 13.568 68.8902 13.104 68.6342 12.8C68.3942 12.48 68.0342 12.32 67.5542 12.32C67.1542 12.32 66.8102 12.448 66.5222 12.704C66.2502 12.96 66.0422 13.408 65.8982 14.048C65.7542 14.688 65.6822 15.576 65.6822 16.712C65.6822 17.592 65.7302 18.352 65.8262 18.992C65.9222 19.616 66.0742 20.136 66.2822 20.552C66.5062 20.968 66.8022 21.28 67.1702 21.488C67.5542 21.68 68.0182 21.776 68.5622 21.776C69.1222 21.776 69.6022 21.688 70.0022 21.512C70.4182 21.32 70.7702 21.056 71.0582 20.72C71.3622 20.384 71.6102 19.992 71.8022 19.544L72.6182 19.976C72.4102 20.472 72.1222 20.976 71.7542 21.488C71.3862 22 70.8662 22.424 70.1942 22.76C69.5382 23.096 68.6422 23.264 67.5062 23.264Z" fill="#4A4F54"/>
<path opacity="0.5" d="M80.7451 16.6113C81.3311 16.6113 81.8145 16.6846 82.1953 16.8311C82.5794 16.9743 82.8659 17.194 83.0547 17.4902C83.2435 17.7865 83.3379 18.1641 83.3379 18.623C83.3379 19.0007 83.2695 19.3164 83.1328 19.5703C82.9961 19.821 82.8171 20.0244 82.5957 20.1807C82.3743 20.3369 82.1383 20.4574 81.8877 20.542L83.8457 23.75H82.8789L81.1309 20.7715H79.6465V23.75H78.8164V16.6113H80.7451ZM80.6963 17.3291H79.6465V20.0684H80.7793C81.362 20.0684 81.79 19.9495 82.0635 19.7119C82.3402 19.4743 82.4785 19.1243 82.4785 18.6621C82.4785 18.1771 82.332 17.8337 82.0391 17.6318C81.7493 17.43 81.3018 17.3291 80.6963 17.3291ZM89.9629 23.75H85.9883V16.6113H89.9629V17.3438H86.8184V19.6533H89.7822V20.376H86.8184V23.0176H89.9629V23.75ZM97.5303 16.6113L94.9668 23.75H94.1318L91.5684 16.6113H92.4375L94.1074 21.3135C94.1758 21.5023 94.236 21.6829 94.2881 21.8555C94.3434 22.028 94.3923 22.194 94.4346 22.3535C94.4769 22.513 94.5143 22.6676 94.5469 22.8174C94.5794 22.6676 94.6169 22.513 94.6592 22.3535C94.7015 22.1908 94.7503 22.0231 94.8057 21.8506C94.861 21.6748 94.9229 21.4909 94.9912 21.2988L96.6514 16.6113H97.5303ZM99.5117 23.75V16.6113H100.342V23.75H99.5117ZM107.279 23.75H103.305V16.6113H107.279V17.3438H104.135V19.6533H107.099V20.376H104.135V23.0176H107.279V23.75ZM117.972 16.6113L116.062 23.75H115.228L113.812 18.9453C113.769 18.8086 113.729 18.6719 113.689 18.5352C113.654 18.3952 113.619 18.2633 113.587 18.1396C113.554 18.0127 113.527 17.902 113.504 17.8076C113.484 17.71 113.47 17.6367 113.46 17.5879C113.453 17.6367 113.44 17.7083 113.421 17.8027C113.405 17.8971 113.382 18.0062 113.353 18.1299C113.326 18.2536 113.294 18.3854 113.255 18.5254C113.219 18.6654 113.18 18.807 113.138 18.9502L111.761 23.75H110.926L109.031 16.6113H109.896L111.043 21.0889C111.082 21.2386 111.118 21.3867 111.15 21.5332C111.186 21.6764 111.217 21.8164 111.243 21.9531C111.272 22.0898 111.299 22.2233 111.321 22.3535C111.344 22.4837 111.365 22.6107 111.385 22.7344C111.401 22.6074 111.422 22.4756 111.448 22.3389C111.474 22.1989 111.502 22.0573 111.531 21.9141C111.564 21.7708 111.598 21.626 111.634 21.4795C111.673 21.333 111.714 21.1865 111.756 21.04L113.04 16.6113H113.895L115.232 21.0742C115.278 21.2272 115.32 21.3786 115.359 21.5283C115.398 21.6781 115.433 21.8245 115.462 21.9678C115.494 22.1077 115.522 22.2428 115.545 22.373C115.571 22.5 115.594 22.6204 115.613 22.7344C115.636 22.5749 115.664 22.4072 115.696 22.2314C115.729 22.0557 115.766 21.8717 115.809 21.6797C115.854 21.4876 115.903 21.2891 115.955 21.084L117.103 16.6113H117.972ZM124.128 21.8506C124.128 22.2738 124.022 22.6351 123.811 22.9346C123.602 23.2308 123.309 23.457 122.932 23.6133C122.554 23.7695 122.11 23.8477 121.599 23.8477C121.328 23.8477 121.073 23.8346 120.832 23.8086C120.591 23.7826 120.37 23.7451 120.168 23.6963C119.966 23.6475 119.789 23.5872 119.636 23.5156V22.7197C119.88 22.8206 120.178 22.915 120.529 23.0029C120.881 23.0876 121.249 23.1299 121.633 23.1299C121.991 23.1299 122.294 23.0827 122.541 22.9883C122.788 22.8906 122.976 22.7523 123.103 22.5732C123.233 22.391 123.298 22.1729 123.298 21.9189C123.298 21.6748 123.244 21.4714 123.137 21.3086C123.029 21.1426 122.85 20.9928 122.6 20.8594C122.352 20.7227 122.014 20.5778 121.584 20.4248C121.281 20.3174 121.014 20.2002 120.783 20.0732C120.552 19.943 120.358 19.7965 120.202 19.6338C120.046 19.471 119.927 19.2822 119.846 19.0674C119.768 18.8525 119.729 18.6068 119.729 18.3301C119.729 17.9492 119.825 17.6237 120.017 17.3535C120.212 17.0801 120.48 16.8717 120.822 16.7285C121.167 16.582 121.563 16.5088 122.009 16.5088C122.39 16.5088 122.741 16.5446 123.063 16.6162C123.389 16.6878 123.687 16.7839 123.957 16.9043L123.698 17.6172C123.441 17.5098 123.168 17.4202 122.878 17.3486C122.591 17.277 122.295 17.2412 121.989 17.2412C121.683 17.2412 121.424 17.2868 121.213 17.3779C121.005 17.4658 120.845 17.5911 120.734 17.7539C120.624 17.9167 120.568 18.1104 120.568 18.335C120.568 18.5856 120.62 18.7939 120.725 18.96C120.832 19.126 121.001 19.2741 121.232 19.4043C121.467 19.5312 121.776 19.6647 122.16 19.8047C122.58 19.9577 122.937 20.1204 123.229 20.293C123.522 20.4622 123.745 20.6706 123.898 20.918C124.051 21.1621 124.128 21.473 124.128 21.8506Z" fill="#4A4F54"/>
</svg>
