<svg width="96" height="21" viewBox="0 0 96 21" fill="none" xmlns="http://www.w3.org/2000/svg">
<path d="M3.25614 16.2842V15.5054C3.83828 15.5054 4.25521 15.4739 4.50694 15.411C4.75868 15.348 4.91601 15.23 4.97894 15.057C5.05761 14.8682 5.09694 14.585 5.09694 14.2074V1.53418H3.98774C3.37414 1.53418 2.84708 1.65218 2.40654 1.88818C1.98174 2.10845 1.63561 2.46245 1.36814 2.95018C1.11641 3.43791 0.935477 4.06725 0.825344 4.83818H-0.000656209L0.0229438 0.708179H13.7581V4.83818H12.9557C12.7984 3.97285 12.5781 3.30418 12.2949 2.83218C12.0275 2.36018 11.6813 2.02978 11.2565 1.84098C10.8317 1.63645 10.3047 1.53418 9.67534 1.53418H8.68414V14.2074C8.68414 14.585 8.72348 14.8682 8.80214 15.057C8.88081 15.23 9.04601 15.348 9.29774 15.411C9.56521 15.4739 9.97428 15.5054 10.5249 15.5054V16.2842H3.25614ZM12.4459 16.2842V15.5054C12.9021 15.5054 13.2325 15.4739 13.4371 15.411C13.6573 15.348 13.7989 15.2379 13.8619 15.0806C13.9248 14.9075 13.9563 14.6558 13.9563 14.3254V7.33978C13.9563 6.99365 13.9091 6.75765 13.8147 6.63178C13.736 6.50591 13.5551 6.44298 13.2719 6.44298H12.4931V5.66418L16.1983 5.07418H17.2131V7.24538H17.3075V14.3254C17.3075 14.6558 17.3468 14.9075 17.4255 15.0806C17.5199 15.2379 17.6929 15.348 17.9447 15.411C18.2121 15.4739 18.6055 15.5054 19.1247 15.5054V16.2842H12.4459ZM16.8355 9.91218V8.40178C16.8984 8.19725 17.0007 7.91405 17.1423 7.55218C17.2996 7.17458 17.512 6.78911 17.7795 6.39578C18.0469 6.00245 18.3773 5.66418 18.7707 5.38098C19.1797 5.09778 19.6675 4.95618 20.2339 4.95618C20.8947 4.95618 21.406 5.15285 21.7679 5.54618C22.1297 5.92378 22.3107 6.41151 22.3107 7.00938C22.3107 7.48138 22.1769 7.90618 21.9095 8.28378C21.6577 8.64565 21.2329 8.82658 20.6351 8.82658C20.1631 8.82658 19.7776 8.70858 19.4787 8.47258C19.1955 8.22085 19.0539 7.86685 19.0539 7.41058C19.0539 7.17458 19.0853 6.99365 19.1483 6.86778C19.2269 6.74191 19.2977 6.64751 19.3607 6.58458C19.4393 6.50591 19.4787 6.43511 19.4787 6.37218C19.4787 6.32498 19.4551 6.28565 19.4079 6.25418C19.3607 6.20698 19.2899 6.18338 19.1955 6.18338C19.0067 6.18338 18.8021 6.29351 18.5819 6.51378C18.3616 6.73405 18.1571 7.03298 17.9683 7.41058C17.7795 7.78818 17.6221 8.19725 17.4963 8.63778C17.3704 9.06258 17.3075 9.47951 17.3075 9.88858L16.8355 9.91218ZM26.4994 16.5674C25.4453 16.5674 24.6193 16.2763 24.0214 15.6942C23.4235 15.0963 23.1246 14.168 23.1246 12.9094V7.29258C23.1246 6.93071 23.0774 6.69471 22.983 6.58458C22.8886 6.45871 22.6998 6.39578 22.4166 6.39578H21.6378V5.61698L25.4138 5.07418H26.4522V12.6262C26.4522 13.224 26.5151 13.7039 26.641 14.0658C26.7826 14.4276 26.9871 14.6951 27.2546 14.8682C27.5221 15.0255 27.8367 15.1042 28.1986 15.1042C28.4975 15.1042 28.7729 15.0491 29.0246 14.939C29.2763 14.8131 29.5281 14.6479 29.7798 14.4434C30.0315 14.2231 30.2833 13.9871 30.535 13.7354L30.6294 14.5142C30.4249 14.7502 30.1417 15.0255 29.7798 15.3402C29.4179 15.6548 28.9617 15.938 28.411 16.1898C27.8761 16.4415 27.2389 16.5674 26.4994 16.5674ZM30.4406 16.2842V14.7738H30.3462V7.29258C30.3462 6.93071 30.299 6.69471 30.2046 6.58458C30.1259 6.45871 29.945 6.39578 29.6618 6.39578H28.883V5.61698L32.6354 5.07418H33.6738V14.585C33.6738 14.8524 33.7053 15.057 33.7682 15.1986C33.8469 15.3244 33.9885 15.411 34.193 15.4582C34.3975 15.4896 34.7043 15.5054 35.1134 15.5054V16.2842H30.4406ZM39.8178 16.5674C39.2357 16.5674 38.7715 16.5123 38.4254 16.4022C38.0793 16.3078 37.7882 16.2134 37.5522 16.119C37.3162 16.0246 37.0802 15.9774 36.8442 15.9774C36.6711 15.9774 36.5374 16.0088 36.443 16.0718C36.3486 16.1347 36.2699 16.2134 36.207 16.3078H35.6406L35.4282 12.461H36.1834C36.3722 13.4679 36.7813 14.2624 37.4106 14.8446C38.0399 15.4267 38.7951 15.7178 39.6762 15.7178C40.2426 15.7178 40.7303 15.584 41.1394 15.3166C41.5642 15.0334 41.7766 14.5928 41.7766 13.995C41.7766 13.6803 41.7137 13.4286 41.5878 13.2398C41.4619 13.0352 41.2574 12.8543 40.9742 12.697C40.691 12.5239 40.3213 12.3508 39.865 12.1778L38.5906 11.8238C37.4893 11.4304 36.7026 10.9742 36.2306 10.455C35.7586 9.93578 35.5226 9.28285 35.5226 8.49618C35.5226 7.39485 35.9002 6.52951 36.6554 5.90018C37.4263 5.25511 38.4647 4.93258 39.7706 4.93258C40.2898 4.93258 40.6989 4.97191 40.9978 5.05058C41.3125 5.12925 41.5721 5.20791 41.7766 5.28658C41.9969 5.36525 42.2014 5.40458 42.3902 5.40458C42.579 5.40458 42.7049 5.35738 42.7678 5.26298C42.8307 5.16858 42.8779 5.07418 42.9094 4.97978H43.4994L43.6646 8.42538H42.9802C42.8229 7.87471 42.6026 7.40271 42.3194 7.00938C42.0362 6.60031 41.6979 6.29351 41.3046 6.08898C40.927 5.86871 40.4865 5.75858 39.983 5.75858C39.4009 5.75858 38.9367 5.89231 38.5906 6.15978C38.2445 6.42725 38.0714 6.77338 38.0714 7.19818C38.0714 7.51285 38.1658 7.78031 38.3546 8.00058C38.5591 8.20511 38.803 8.37818 39.0862 8.51978C39.3851 8.64565 39.6762 8.76365 39.9594 8.87378L41.045 9.20418C41.8002 9.44018 42.4138 9.72338 42.8858 10.0538C43.3735 10.3684 43.7354 10.746 43.9714 11.1866C44.2074 11.6114 44.3254 12.1227 44.3254 12.7206C44.3254 13.46 44.1445 14.1208 43.7826 14.703C43.4365 15.2851 42.9251 15.7414 42.2486 16.0718C41.5878 16.4022 40.7775 16.5674 39.8178 16.5674ZM48.6305 16.5674C47.9854 16.5674 47.4269 16.4572 46.9549 16.237C46.4829 16.001 46.121 15.6312 45.8693 15.1278C45.6333 14.6086 45.5153 13.932 45.5153 13.0982V6.04178H44.0993V5.26298C44.7286 5.13711 45.3107 4.87751 45.8457 4.48418C46.3806 4.07511 46.8369 3.57165 47.2145 2.97378C47.6078 2.36018 47.8989 1.70725 48.0877 1.01498H48.8665V5.19218H51.1793V6.04178H48.8665V12.9566C48.8665 13.6803 48.9609 14.231 49.1497 14.6086C49.3542 14.9704 49.7082 15.1514 50.2117 15.1514C50.4949 15.1514 50.7545 15.0963 50.9905 14.9862C51.2422 14.8603 51.4153 14.7659 51.5097 14.703L51.9109 15.3638C51.7063 15.5054 51.4625 15.6706 51.1793 15.8594C50.8961 16.0482 50.5499 16.2134 50.1409 16.355C49.7318 16.4966 49.2283 16.5674 48.6305 16.5674ZM51.1803 21.0042V20.2254C51.6366 20.2254 51.967 20.1939 52.1715 20.131C52.3918 20.0838 52.5334 19.9736 52.5963 19.8006C52.6592 19.6432 52.6907 19.3915 52.6907 19.0454V7.24538C52.6907 6.91498 52.6435 6.70258 52.5491 6.60818C52.4547 6.49805 52.2344 6.44298 51.8883 6.44298H51.2039V5.64058L54.9091 5.07418H55.9239V6.32498H56.0183V19.0454C56.0183 19.3758 56.0498 19.6196 56.1127 19.777C56.1914 19.95 56.333 20.068 56.5375 20.131C56.7578 20.1939 57.096 20.2254 57.5523 20.2254V21.0042H51.1803ZM58.1659 16.5674C57.7411 16.5674 57.3556 16.528 57.0095 16.4494C56.6634 16.3864 56.3251 16.292 55.9947 16.1662C55.68 16.0403 55.3575 15.8987 55.0271 15.7414V13.3814C55.1844 13.6016 55.3575 13.8534 55.5463 14.1366C55.7351 14.404 55.9475 14.6558 56.1835 14.8918C56.4195 15.1278 56.6791 15.3244 56.9623 15.4818C57.2612 15.6391 57.5916 15.7178 57.9535 15.7178C58.8188 15.7178 59.4482 15.3402 59.8415 14.585C60.2348 13.814 60.4315 12.579 60.4315 10.8798C60.4315 9.41658 60.2348 8.28378 59.8415 7.48138C59.4639 6.66325 58.866 6.25418 58.0479 6.25418C57.6546 6.25418 57.3006 6.35645 56.9859 6.56098C56.6712 6.74978 56.4038 6.96218 56.1835 7.19818C55.9632 7.43418 55.798 7.61511 55.6879 7.74098V6.58458C55.9868 6.25418 56.3094 5.97098 56.6555 5.73498C57.0174 5.48325 57.4264 5.28658 57.8827 5.14498C58.339 5.00338 58.8503 4.93258 59.4167 4.93258C60.8327 4.93258 61.9419 5.39671 62.7443 6.32498C63.5467 7.25325 63.9479 8.62205 63.9479 10.4314C63.9479 11.7687 63.7198 12.8936 63.2635 13.8062C62.8072 14.703 62.1464 15.3874 61.2811 15.8594C60.4158 16.3314 59.3774 16.5674 58.1659 16.5674ZM64.1316 16.2842V15.5054C64.5879 15.5054 64.9183 15.4739 65.1228 15.411C65.3431 15.348 65.4847 15.2379 65.5476 15.0806C65.6106 14.9075 65.642 14.6558 65.642 14.3254V7.33978C65.642 6.97791 65.5948 6.74191 65.5004 6.63178C65.4218 6.50591 65.2487 6.44298 64.9812 6.44298H64.2024V5.66418L67.9548 5.07418H68.9932V14.3254C68.9932 14.6558 69.0247 14.9075 69.0876 15.0806C69.1506 15.2379 69.2764 15.348 69.4652 15.411C69.6698 15.4739 69.9687 15.5054 70.362 15.5054V16.2842H64.1316ZM67.2232 3.75258C66.704 3.75258 66.2478 3.57165 65.8544 3.20978C65.4768 2.84791 65.288 2.40738 65.288 1.88818C65.288 1.35325 65.4768 0.904845 65.8544 0.542978C66.2478 0.181111 66.704 0.000178074 67.2232 0.000178074C67.5851 0.000178074 67.9076 0.0867117 68.1908 0.259779C68.4898 0.432845 68.7258 0.660978 68.8988 0.944179C69.0719 1.22738 69.1584 1.54205 69.1584 1.88818C69.1584 2.40738 68.9618 2.84791 68.5684 3.20978C68.1908 3.57165 67.7424 3.75258 67.2232 3.75258ZM70.3061 16.2842V15.5054C70.7466 15.5054 71.077 15.4739 71.2973 15.411C71.5175 15.348 71.6591 15.2379 71.7221 15.0806C71.785 14.9075 71.8165 14.6558 71.8165 14.3254V2.28938C71.8165 1.92751 71.7693 1.68365 71.6749 1.55778C71.5962 1.43191 71.4153 1.36898 71.1321 1.36898H70.3533V0.590179L74.1529 0.000178074H75.1677V14.3254C75.1677 14.6558 75.1991 14.9075 75.2621 15.0806C75.325 15.2379 75.4509 15.348 75.6397 15.411C75.8442 15.4739 76.1431 15.5054 76.5365 15.5054V16.2842H70.3061ZM82.3405 16.5438C80.3581 16.5438 78.8871 16.0718 77.9273 15.1278C76.9676 14.1838 76.4877 12.7284 76.4877 10.7618C76.4877 8.77938 76.9755 7.30831 77.9509 6.34858C78.9264 5.38885 80.4053 4.90898 82.3877 4.90898C84.3544 4.90898 85.8097 5.38098 86.7537 6.32498C87.7135 7.26898 88.1933 8.73218 88.1933 10.7146C88.1933 12.697 87.7135 14.168 86.7537 15.1278C85.8097 16.0718 84.3387 16.5438 82.3405 16.5438ZM82.3641 15.7178C83.198 15.7178 83.7959 15.3087 84.1577 14.4906C84.5196 13.6724 84.6848 12.4138 84.6533 10.7146C84.6376 8.99965 84.4488 7.74885 84.0869 6.96218C83.7408 6.15978 83.1508 5.75858 82.3169 5.75858C81.4831 5.75858 80.8852 6.18338 80.5233 7.03298C80.1772 7.88258 80.0041 9.13338 80.0041 10.7854C80.0041 12.5003 80.1851 13.7511 80.5469 14.5378C80.9088 15.3244 81.5145 15.7178 82.3641 15.7178ZM92.5961 16.5674C91.951 16.5674 91.3925 16.4572 90.9205 16.237C90.4485 16.001 90.0866 15.6312 89.8349 15.1278C89.5989 14.6086 89.4809 13.932 89.4809 13.0982V6.04178H88.0649V5.26298C88.6942 5.13711 89.2764 4.87751 89.8113 4.48418C90.3462 4.07511 90.8025 3.57165 91.1801 2.97378C91.5734 2.36018 91.8645 1.70725 92.0533 1.01498H92.8321V5.19218H95.1449V6.04178H92.8321V12.9566C92.8321 13.6803 92.9265 14.231 93.1153 14.6086C93.3198 14.9704 93.6738 15.1514 94.1773 15.1514C94.4605 15.1514 94.7201 15.0963 94.9561 14.9862C95.2078 14.8603 95.3809 14.7659 95.4753 14.703L95.8765 15.3638C95.672 15.5054 95.4281 15.6706 95.1449 15.8594C94.8617 16.0482 94.5156 16.2134 94.1065 16.355C93.6974 16.4966 93.194 16.5674 92.5961 16.5674Z" fill="#4A4F54"/>
</svg>
