<svg width="52" height="31" viewBox="0 0 52 31" fill="none" xmlns="http://www.w3.org/2000/svg">
<rect width="52" height="31" rx="2" fill="#F5F5F5"/>
<path d="M19.8366 21.8629L21.9607 10.2377H25.3583L23.2326 21.8629H19.8366ZM35.5074 10.4883C34.8345 10.2527 33.7797 10 32.4625 10C29.1052 10 26.7406 11.5767 26.7203 13.8365C26.7014 15.507 28.4086 16.4389 29.6973 16.9949C31.0199 17.5649 31.4644 17.9282 31.458 18.437C31.4496 19.2163 30.4019 19.5721 29.4253 19.5721C28.0655 19.5721 27.3431 19.396 26.2273 18.9621L25.7893 18.7773L25.3126 21.3797C26.1062 21.7044 27.5735 21.9854 29.0973 22C32.6687 22 34.9872 20.4413 35.0136 18.028C35.0263 16.7055 34.1211 15.6992 32.1609 14.8694C30.9734 14.3316 30.2461 13.9728 30.2538 13.4282C30.2538 12.945 30.8694 12.4283 32.1997 12.4283C33.3106 12.4122 34.1155 12.6381 34.7426 12.8737L35.047 13.0078L35.5074 10.4883ZM44.2505 10.2375H41.6252C40.812 10.2375 40.2033 10.4445 39.8462 11.2015L34.8003 21.8553H38.3681C38.3681 21.8553 38.9513 20.4228 39.0832 20.1083C39.4731 20.1083 42.939 20.1133 43.4344 20.1133C43.536 20.5203 43.8478 21.8553 43.8478 21.8553H47.0004L44.2505 10.2371V10.2375ZM40.0852 17.7444C40.3662 17.0746 41.4389 14.4946 41.4389 14.4946C41.4189 14.5255 41.7178 13.8215 41.8893 13.385L42.1189 14.3873C42.1189 14.3873 42.7695 17.1623 42.9055 17.7442H40.0852V17.7444ZM16.9524 10.2375L13.6261 18.1654L13.2718 16.5544C12.6525 14.6971 10.7232 12.685 8.56641 11.6776L11.6079 21.8444L15.2026 21.8407L20.5515 10.2374L16.9524 10.2373" fill="#0E4595"/>
<path d="M10.522 10.2363H5.04343L5 10.4782C9.26227 11.4405 12.0825 13.766 13.2534 16.5605L12.0621 11.2181C11.8565 10.482 11.26 10.2623 10.5221 10.2366" fill="#F2AE14"/>
</svg>
